<svg xmlns="http://www.w3.org/2000/svg" xmlns:xlink="http://www.w3.org/1999/xlink" width="410" zoomAndPan="magnify" viewBox="0 0 307.5 21.75" height="29" preserveAspectRatio="xMidYMid meet" version="1.0"><defs><clipPath id="496f3ccf5a"><path d="M 1.5 0 L 305.503906 0 L 305.503906 21.503906 L 1.5 21.503906 Z M 1.5 0 " clip-rule="nonzero"/></clipPath><clipPath id="c19b8534a5"><path d="M 1.5 0 L 305.210938 0 L 305.210938 20.960938 L 1.5 20.960938 Z M 1.5 0 " clip-rule="nonzero"/></clipPath><clipPath id="3a00cf5471"><path d="M 1.5 3 L 81 3 L 81 7 L 1.5 7 Z M 1.5 3 " clip-rule="nonzero"/></clipPath><clipPath id="56af7878e9"><path d="M 1.5 9 L 81 9 L 81 12 L 1.5 12 Z M 1.5 9 " clip-rule="nonzero"/></clipPath><clipPath id="c81f967b0d"><path d="M 1.5 14 L 81 14 L 81 18 L 1.5 18 Z M 1.5 14 " clip-rule="nonzero"/></clipPath><clipPath id="2c4326d92d"><path d="M 226 3 L 305.503906 3 L 305.503906 7 L 226 7 Z M 226 3 " clip-rule="nonzero"/></clipPath><clipPath id="a513cd6dcf"><path d="M 226 9 L 305.503906 9 L 305.503906 12 L 226 12 Z M 226 9 " clip-rule="nonzero"/></clipPath><clipPath id="a527397f73"><path d="M 226 14 L 305.503906 14 L 305.503906 18 L 226 18 Z M 226 14 " clip-rule="nonzero"/></clipPath><clipPath id="c69ad0e25a"><path d="M 87 0 L 109 0 L 109 18.535156 L 87 18.535156 Z M 87 0 " clip-rule="nonzero"/></clipPath><clipPath id="580c286468"><path d="M 115 0 L 137 0 L 137 18.535156 L 115 18.535156 Z M 115 0 " clip-rule="nonzero"/></clipPath><clipPath id="6de745bc8c"><path d="M 142 0 L 164 0 L 164 18.535156 L 142 18.535156 Z M 142 0 " clip-rule="nonzero"/></clipPath><clipPath id="e908de4f34"><path d="M 170 0 L 192 0 L 192 18.535156 L 170 18.535156 Z M 170 0 " clip-rule="nonzero"/></clipPath><clipPath id="8714f2cb5f"><path d="M 198 0 L 220 0 L 220 18.535156 L 198 18.535156 Z M 198 0 " clip-rule="nonzero"/></clipPath></defs><g clip-path="url(#496f3ccf5a)"><path fill="#ffffff" d="M 1.5 0 L 305.503906 0 L 305.503906 21.503906 L 1.5 21.503906 Z M 1.5 0 " fill-opacity="1" fill-rule="nonzero"/></g><g clip-path="url(#c19b8534a5)"><path fill="#f7f7e6" d="M 1.5 0 L 305.246094 0 L 305.246094 20.960938 L 1.5 20.960938 Z M 1.5 0 " fill-opacity="1" fill-rule="nonzero"/></g><g clip-path="url(#3a00cf5471)"><path fill="#ed1c24" d="M 80.175781 6.238281 L 1.582031 6.238281 L 1.582031 3.359375 L 80.175781 3.359375 L 80.175781 6.238281 " fill-opacity="1" fill-rule="nonzero"/></g><g clip-path="url(#56af7878e9)"><path fill="#ed1c24" d="M 80.175781 11.988281 L 1.582031 11.988281 L 1.582031 9.113281 L 80.175781 9.113281 L 80.175781 11.988281 " fill-opacity="1" fill-rule="nonzero"/></g><g clip-path="url(#c81f967b0d)"><path fill="#ed1c24" d="M 80.175781 17.742188 L 1.582031 17.742188 L 1.582031 14.867188 L 80.175781 14.867188 L 80.175781 17.742188 " fill-opacity="1" fill-rule="nonzero"/></g><g clip-path="url(#2c4326d92d)"><path fill="#ed1c24" d="M 305.125 6.238281 L 226.527344 6.238281 L 226.527344 3.359375 L 305.125 3.359375 L 305.125 6.238281 " fill-opacity="1" fill-rule="nonzero"/></g><g clip-path="url(#a513cd6dcf)"><path fill="#ed1c24" d="M 305.125 11.988281 L 226.527344 11.988281 L 226.527344 9.113281 L 305.125 9.113281 L 305.125 11.988281 " fill-opacity="1" fill-rule="nonzero"/></g><g clip-path="url(#a527397f73)"><path fill="#ed1c24" d="M 305.125 17.742188 L 226.527344 17.742188 L 226.527344 14.867188 L 305.125 14.867188 L 305.125 17.742188 " fill-opacity="1" fill-rule="nonzero"/></g><g clip-path="url(#c69ad0e25a)"><path fill="#38499e" d="M 97.808594 15.101562 L 104.277344 18.210938 L 103.039062 11.621094 L 108.269531 6.957031 L 101.039062 5.996094 L 97.808594 0 L 94.574219 5.996094 L 87.34375 6.957031 L 92.574219 11.621094 L 91.339844 18.210938 L 97.808594 15.101562 " fill-opacity="1" fill-rule="nonzero"/></g><g clip-path="url(#580c286468)"><path fill="#38499e" d="M 125.582031 15.101562 L 132.046875 18.210938 L 130.8125 11.621094 L 136.042969 6.957031 L 128.8125 5.996094 L 125.582031 0 L 122.347656 5.996094 L 115.117188 6.957031 L 120.347656 11.621094 L 119.113281 18.210938 L 125.582031 15.101562 " fill-opacity="1" fill-rule="nonzero"/></g><g clip-path="url(#6de745bc8c)"><path fill="#38499e" d="M 153.351562 15.101562 L 159.820312 18.210938 L 158.582031 11.621094 L 163.816406 6.957031 L 156.585938 5.996094 L 153.351562 0 L 150.117188 5.996094 L 142.886719 6.957031 L 148.121094 11.621094 L 146.886719 18.210938 L 153.351562 15.101562 " fill-opacity="1" fill-rule="nonzero"/></g><g clip-path="url(#e908de4f34)"><path fill="#38499e" d="M 181.125 15.101562 L 187.589844 18.210938 L 186.355469 11.621094 L 191.589844 6.957031 L 184.359375 5.996094 L 181.125 0 L 177.890625 5.996094 L 170.660156 6.957031 L 175.894531 11.621094 L 174.65625 18.210938 L 181.125 15.101562 " fill-opacity="1" fill-rule="nonzero"/></g><g clip-path="url(#8714f2cb5f)"><path fill="#38499e" d="M 208.894531 15.101562 L 215.363281 18.210938 L 214.128906 11.621094 L 219.359375 6.957031 L 212.128906 5.996094 L 208.894531 0 L 205.664062 5.996094 L 198.433594 6.957031 L 203.664062 11.621094 L 202.429688 18.210938 L 208.894531 15.101562 " fill-opacity="1" fill-rule="nonzero"/></g></svg>