<svg xmlns="http://www.w3.org/2000/svg" xmlns:xlink="http://www.w3.org/1999/xlink" width="1024" zoomAndPan="magnify" viewBox="0 0 768 95.999999" height="128" preserveAspectRatio="xMidYMid meet" version="1.0"><defs><g/><clipPath id="599d75aec1"><path d="M 0 86.398438 L 768 86.398438 L 768 96 L 0 96 Z M 0 86.398438 " clip-rule="nonzero"/></clipPath><clipPath id="fc92a86016"><path d="M 360.695312 87.71875 L 367.996094 87.71875 L 367.996094 94.710938 L 360.695312 94.710938 Z M 360.695312 87.71875 " clip-rule="nonzero"/></clipPath><clipPath id="1c21d339d0"><path d="M 364.582031 87.910156 L 365.082031 89.449219 C 365.226562 89.898438 365.644531 90.199219 366.113281 90.199219 L 367.726562 90.199219 C 367.835938 90.199219 367.933594 90.269531 367.96875 90.375 C 368.003906 90.480469 367.964844 90.597656 367.875 90.664062 L 366.570312 91.613281 C 366.191406 91.890625 366.03125 92.378906 366.175781 92.828125 L 366.675781 94.367188 C 366.710938 94.472656 366.671875 94.585938 366.582031 94.652344 C 366.492188 94.71875 366.371094 94.71875 366.28125 94.652344 L 364.976562 93.703125 C 364.597656 93.425781 364.082031 93.425781 363.703125 93.703125 L 362.398438 94.652344 C 362.308594 94.71875 362.1875 94.71875 362.097656 94.652344 C 362.007812 94.585938 361.96875 94.472656 362.003906 94.367188 L 362.503906 92.828125 C 362.648438 92.378906 362.488281 91.890625 362.109375 91.613281 L 360.804688 90.664062 C 360.714844 90.597656 360.675781 90.480469 360.710938 90.375 C 360.746094 90.269531 360.84375 90.199219 360.953125 90.199219 L 362.566406 90.199219 C 363.035156 90.199219 363.453125 89.898438 363.597656 89.449219 L 364.097656 87.910156 C 364.132812 87.804688 364.230469 87.734375 364.339844 87.734375 C 364.449219 87.734375 364.546875 87.804688 364.582031 87.910156 Z M 364.582031 87.910156 " clip-rule="nonzero"/></clipPath><clipPath id="bcef8517a3"><path d="M 400.015625 88.007812 L 407.316406 88.007812 L 407.316406 94.996094 L 400.015625 94.996094 Z M 400.015625 88.007812 " clip-rule="nonzero"/></clipPath><clipPath id="c0a75a0f36"><path d="M 403.902344 88.195312 L 404.402344 89.738281 C 404.546875 90.183594 404.964844 90.484375 405.433594 90.484375 L 407.046875 90.484375 C 407.15625 90.484375 407.253906 90.558594 407.289062 90.664062 C 407.324219 90.769531 407.285156 90.882812 407.195312 90.949219 L 405.890625 91.898438 C 405.511719 92.175781 405.351562 92.664062 405.496094 93.113281 L 405.996094 94.652344 C 406.03125 94.757812 405.992188 94.875 405.902344 94.9375 C 405.8125 95.003906 405.691406 95.003906 405.601562 94.9375 L 404.296875 93.988281 C 403.917969 93.710938 403.402344 93.710938 403.023438 93.988281 L 401.71875 94.9375 C 401.628906 95.003906 401.507812 95.003906 401.417969 94.9375 C 401.328125 94.875 401.289062 94.757812 401.324219 94.652344 L 401.824219 93.113281 C 401.96875 92.664062 401.808594 92.175781 401.429688 91.898438 L 400.125 90.949219 C 400.035156 90.882812 399.996094 90.769531 400.03125 90.664062 C 400.066406 90.558594 400.164062 90.484375 400.273438 90.484375 L 401.886719 90.484375 C 402.355469 90.484375 402.773438 90.183594 402.917969 89.738281 L 403.417969 88.195312 C 403.453125 88.089844 403.550781 88.019531 403.660156 88.019531 C 403.769531 88.019531 403.867188 88.089844 403.902344 88.195312 Z M 403.902344 88.195312 " clip-rule="nonzero"/></clipPath><clipPath id="ab61a325f9"><path d="M 380.289062 88.007812 L 387.59375 88.007812 L 387.59375 94.996094 L 380.289062 94.996094 Z M 380.289062 88.007812 " clip-rule="nonzero"/></clipPath><clipPath id="769773f1d1"><path d="M 384.179688 88.195312 L 384.679688 89.738281 C 384.824219 90.183594 385.238281 90.484375 385.707031 90.484375 L 387.320312 90.484375 C 387.433594 90.484375 387.53125 90.558594 387.566406 90.664062 C 387.597656 90.769531 387.5625 90.882812 387.472656 90.949219 L 386.167969 91.898438 C 385.785156 92.175781 385.628906 92.664062 385.773438 93.113281 L 386.273438 94.652344 C 386.304688 94.757812 386.269531 94.875 386.179688 94.9375 C 386.089844 95.003906 385.96875 95.003906 385.878906 94.9375 L 384.570312 93.988281 C 384.191406 93.710938 383.679688 93.710938 383.300781 93.988281 L 381.992188 94.9375 C 381.902344 95.003906 381.78125 95.003906 381.691406 94.9375 C 381.601562 94.875 381.566406 94.757812 381.597656 94.652344 L 382.097656 93.113281 C 382.242188 92.664062 382.085938 92.175781 381.703125 91.898438 L 380.398438 90.949219 C 380.308594 90.882812 380.273438 90.769531 380.304688 90.664062 C 380.339844 90.558594 380.4375 90.484375 380.550781 90.484375 L 382.164062 90.484375 C 382.632812 90.484375 383.046875 90.183594 383.191406 89.738281 L 383.691406 88.195312 C 383.726562 88.089844 383.824219 88.019531 383.9375 88.019531 C 384.046875 88.019531 384.144531 88.089844 384.179688 88.195312 Z M 384.179688 88.195312 " clip-rule="nonzero"/></clipPath><clipPath id="32c06a1d71"><path d="M 419.613281 87.730469 L 426.914062 87.730469 L 426.914062 94.71875 L 419.613281 94.71875 Z M 419.613281 87.730469 " clip-rule="nonzero"/></clipPath><clipPath id="fe5517213f"><path d="M 423.5 87.917969 L 424 89.457031 C 424.144531 89.90625 424.558594 90.207031 425.027344 90.207031 L 426.640625 90.207031 C 426.753906 90.207031 426.851562 90.277344 426.886719 90.386719 C 426.917969 90.492188 426.882812 90.605469 426.792969 90.671875 L 425.488281 91.621094 C 425.105469 91.898438 424.949219 92.386719 425.09375 92.835938 L 425.59375 94.375 C 425.625 94.480469 425.589844 94.597656 425.5 94.660156 C 425.410156 94.726562 425.289062 94.726562 425.199219 94.660156 L 423.894531 93.710938 C 423.511719 93.433594 423 93.433594 422.621094 93.710938 L 421.3125 94.660156 C 421.222656 94.726562 421.101562 94.726562 421.011719 94.660156 C 420.921875 94.597656 420.886719 94.480469 420.921875 94.375 L 421.417969 92.835938 C 421.5625 92.386719 421.40625 91.898438 421.027344 91.621094 L 419.71875 90.671875 C 419.628906 90.605469 419.59375 90.492188 419.628906 90.386719 C 419.660156 90.277344 419.761719 90.207031 419.871094 90.207031 L 421.484375 90.207031 C 421.953125 90.207031 422.371094 89.90625 422.515625 89.457031 L 423.011719 87.917969 C 423.046875 87.8125 423.144531 87.742188 423.257812 87.742188 C 423.367188 87.742188 423.464844 87.8125 423.5 87.917969 Z M 423.5 87.917969 " clip-rule="nonzero"/></clipPath><clipPath id="c919165b4c"><path d="M 341.097656 87.71875 L 348.402344 87.71875 L 348.402344 94.710938 L 341.097656 94.710938 Z M 341.097656 87.71875 " clip-rule="nonzero"/></clipPath><clipPath id="4025edbb8e"><path d="M 344.988281 87.910156 L 345.484375 89.449219 C 345.628906 89.898438 346.046875 90.199219 346.515625 90.199219 L 348.128906 90.199219 C 348.238281 90.199219 348.339844 90.269531 348.371094 90.375 C 348.40625 90.480469 348.371094 90.597656 348.28125 90.664062 L 346.972656 91.613281 C 346.59375 91.890625 346.4375 92.378906 346.582031 92.828125 L 347.078125 94.367188 C 347.113281 94.472656 347.078125 94.585938 346.988281 94.652344 C 346.898438 94.71875 346.777344 94.71875 346.6875 94.652344 L 345.378906 93.703125 C 345 93.425781 344.488281 93.425781 344.105469 93.703125 L 342.800781 94.652344 C 342.710938 94.71875 342.589844 94.71875 342.5 94.652344 C 342.410156 94.585938 342.375 94.472656 342.40625 94.367188 L 342.90625 92.828125 C 343.050781 92.378906 342.894531 91.890625 342.511719 91.613281 L 341.207031 90.664062 C 341.117188 90.597656 341.082031 90.480469 341.113281 90.375 C 341.148438 90.269531 341.246094 90.199219 341.359375 90.199219 L 342.972656 90.199219 C 343.441406 90.199219 343.855469 89.898438 344 89.449219 L 344.5 87.910156 C 344.535156 87.804688 344.632812 87.734375 344.742188 87.734375 C 344.855469 87.734375 344.953125 87.804688 344.988281 87.910156 Z M 344.988281 87.910156 " clip-rule="nonzero"/></clipPath><clipPath id="8f5e96ded8"><path d="M 0 0.0390625 L 768 0.0390625 L 768 9.800781 L 0 9.800781 Z M 0 0.0390625 " clip-rule="nonzero"/></clipPath><clipPath id="51fd7fbdfa"><path d="M 360.496094 1.359375 L 367.800781 1.359375 L 367.800781 8.347656 L 360.496094 8.347656 Z M 360.496094 1.359375 " clip-rule="nonzero"/></clipPath><clipPath id="070ea0d0c1"><path d="M 364.382812 1.546875 L 364.882812 3.089844 C 365.027344 3.535156 365.445312 3.835938 365.914062 3.835938 L 367.527344 3.835938 C 367.636719 3.835938 367.734375 3.910156 367.769531 4.015625 C 367.804688 4.121094 367.765625 4.234375 367.679688 4.300781 L 366.371094 5.25 C 365.992188 5.527344 365.832031 6.015625 365.976562 6.464844 L 366.476562 8.003906 C 366.511719 8.109375 366.472656 8.226562 366.382812 8.289062 C 366.292969 8.355469 366.171875 8.355469 366.082031 8.289062 L 364.777344 7.339844 C 364.398438 7.0625 363.882812 7.0625 363.503906 7.339844 L 362.199219 8.289062 C 362.109375 8.355469 361.988281 8.355469 361.898438 8.289062 C 361.808594 8.226562 361.769531 8.109375 361.804688 8.003906 L 362.304688 6.464844 C 362.449219 6.015625 362.289062 5.527344 361.910156 5.25 L 360.605469 4.300781 C 360.515625 4.234375 360.476562 4.121094 360.511719 4.015625 C 360.546875 3.910156 360.644531 3.835938 360.757812 3.835938 L 362.367188 3.835938 C 362.839844 3.835938 363.253906 3.535156 363.398438 3.089844 L 363.898438 1.546875 C 363.933594 1.441406 364.03125 1.371094 364.140625 1.371094 C 364.253906 1.371094 364.351562 1.441406 364.382812 1.546875 Z M 364.382812 1.546875 " clip-rule="nonzero"/></clipPath><clipPath id="4fb19f7477"><path d="M 399.816406 1.644531 L 407.121094 1.644531 L 407.121094 8.636719 L 399.816406 8.636719 Z M 399.816406 1.644531 " clip-rule="nonzero"/></clipPath><clipPath id="097a6fca12"><path d="M 403.703125 1.832031 L 404.203125 3.375 C 404.347656 3.820312 404.765625 4.121094 405.234375 4.121094 L 406.847656 4.121094 C 406.957031 4.121094 407.058594 4.195312 407.089844 4.300781 C 407.125 4.40625 407.089844 4.519531 407 4.585938 L 405.691406 5.539062 C 405.3125 5.8125 405.152344 6.304688 405.300781 6.75 L 405.796875 8.289062 C 405.832031 8.394531 405.792969 8.511719 405.707031 8.574219 C 405.617188 8.640625 405.496094 8.640625 405.40625 8.574219 L 404.097656 7.625 C 403.71875 7.347656 403.203125 7.347656 402.824219 7.625 L 401.519531 8.574219 C 401.429688 8.640625 401.308594 8.640625 401.21875 8.574219 C 401.128906 8.511719 401.09375 8.394531 401.125 8.289062 L 401.625 6.75 C 401.769531 6.304688 401.613281 5.8125 401.230469 5.539062 L 399.925781 4.585938 C 399.835938 4.519531 399.796875 4.40625 399.832031 4.300781 C 399.867188 4.195312 399.964844 4.121094 400.078125 4.121094 L 401.691406 4.121094 C 402.160156 4.121094 402.574219 3.820312 402.71875 3.375 L 403.21875 1.832031 C 403.253906 1.726562 403.351562 1.65625 403.460938 1.65625 C 403.574219 1.65625 403.671875 1.726562 403.703125 1.832031 Z M 403.703125 1.832031 " clip-rule="nonzero"/></clipPath><clipPath id="8f05fc1be5"><path d="M 380.09375 1.644531 L 387.394531 1.644531 L 387.394531 8.636719 L 380.09375 8.636719 Z M 380.09375 1.644531 " clip-rule="nonzero"/></clipPath><clipPath id="540488ab4b"><path d="M 383.980469 1.832031 L 384.480469 3.375 C 384.625 3.820312 385.039062 4.121094 385.511719 4.121094 L 387.121094 4.121094 C 387.234375 4.121094 387.332031 4.195312 387.367188 4.300781 C 387.402344 4.40625 387.363281 4.519531 387.273438 4.585938 L 385.96875 5.539062 C 385.589844 5.8125 385.429688 6.304688 385.574219 6.75 L 386.074219 8.289062 C 386.109375 8.394531 386.070312 8.511719 385.980469 8.574219 C 385.890625 8.640625 385.769531 8.640625 385.679688 8.574219 L 384.375 7.625 C 383.996094 7.347656 383.480469 7.347656 383.101562 7.625 L 381.796875 8.574219 C 381.707031 8.640625 381.585938 8.640625 381.496094 8.574219 C 381.40625 8.511719 381.367188 8.394531 381.402344 8.289062 L 381.902344 6.75 C 382.046875 6.304688 381.886719 5.8125 381.507812 5.539062 L 380.199219 4.585938 C 380.109375 4.519531 380.074219 4.40625 380.109375 4.300781 C 380.140625 4.195312 380.242188 4.121094 380.351562 4.121094 L 381.964844 4.121094 C 382.433594 4.121094 382.851562 3.820312 382.996094 3.375 L 383.496094 1.832031 C 383.527344 1.726562 383.625 1.65625 383.738281 1.65625 C 383.847656 1.65625 383.945312 1.726562 383.980469 1.832031 Z M 383.980469 1.832031 " clip-rule="nonzero"/></clipPath><clipPath id="b6fd56ac37"><path d="M 419.414062 1.367188 L 426.714844 1.367188 L 426.714844 8.359375 L 419.414062 8.359375 Z M 419.414062 1.367188 " clip-rule="nonzero"/></clipPath><clipPath id="ff6878bfe3"><path d="M 423.300781 1.554688 L 423.800781 3.097656 C 423.945312 3.542969 424.359375 3.84375 424.832031 3.84375 L 426.445312 3.84375 C 426.554688 3.84375 426.652344 3.917969 426.6875 4.023438 C 426.722656 4.128906 426.683594 4.242188 426.59375 4.308594 L 425.289062 5.257812 C 424.910156 5.535156 424.75 6.023438 424.894531 6.472656 L 425.394531 8.011719 C 425.429688 8.117188 425.390625 8.234375 425.300781 8.296875 C 425.210938 8.363281 425.089844 8.363281 425 8.296875 L 423.695312 7.347656 C 423.316406 7.070312 422.800781 7.070312 422.421875 7.347656 L 421.117188 8.296875 C 421.027344 8.363281 420.90625 8.363281 420.816406 8.296875 C 420.726562 8.234375 420.6875 8.117188 420.722656 8.011719 L 421.222656 6.472656 C 421.367188 6.023438 421.207031 5.535156 420.828125 5.257812 L 419.523438 4.308594 C 419.433594 4.242188 419.394531 4.128906 419.429688 4.023438 C 419.464844 3.917969 419.5625 3.84375 419.671875 3.84375 L 421.285156 3.84375 C 421.753906 3.84375 422.171875 3.542969 422.316406 3.097656 L 422.816406 1.554688 C 422.847656 1.449219 422.949219 1.378906 423.058594 1.378906 C 423.167969 1.378906 423.265625 1.449219 423.300781 1.554688 Z M 423.300781 1.554688 " clip-rule="nonzero"/></clipPath><clipPath id="ca6460d11e"><path d="M 340.902344 1.359375 L 348.203125 1.359375 L 348.203125 8.347656 L 340.902344 8.347656 Z M 340.902344 1.359375 " clip-rule="nonzero"/></clipPath><clipPath id="be8d7d7620"><path d="M 344.789062 1.546875 L 345.289062 3.089844 C 345.433594 3.535156 345.847656 3.835938 346.316406 3.835938 L 347.929688 3.835938 C 348.042969 3.835938 348.140625 3.910156 348.175781 4.015625 C 348.210938 4.121094 348.171875 4.234375 348.082031 4.300781 L 346.777344 5.25 C 346.394531 5.527344 346.238281 6.015625 346.382812 6.464844 L 346.882812 8.003906 C 346.914062 8.109375 346.878906 8.226562 346.789062 8.289062 C 346.699219 8.355469 346.578125 8.355469 346.488281 8.289062 L 345.183594 7.339844 C 344.800781 7.0625 344.289062 7.0625 343.910156 7.339844 L 342.601562 8.289062 C 342.511719 8.355469 342.390625 8.355469 342.300781 8.289062 C 342.210938 8.226562 342.175781 8.109375 342.210938 8.003906 L 342.707031 6.464844 C 342.855469 6.015625 342.695312 5.527344 342.316406 5.25 L 341.007812 4.300781 C 340.917969 4.234375 340.882812 4.121094 340.917969 4.015625 C 340.949219 3.910156 341.050781 3.835938 341.160156 3.835938 L 342.773438 3.835938 C 343.242188 3.835938 343.660156 3.535156 343.804688 3.089844 L 344.300781 1.546875 C 344.335938 1.441406 344.433594 1.371094 344.546875 1.371094 C 344.65625 1.371094 344.753906 1.441406 344.789062 1.546875 Z M 344.789062 1.546875 " clip-rule="nonzero"/></clipPath></defs><rect x="-76.8" width="921.6" fill="#ffffff" y="-9.6" height="115.199999" fill-opacity="1"/><rect x="-76.8" width="921.6" fill="#38499e" y="-9.6" height="115.199999" fill-opacity="1"/><g fill="#ffffff" fill-opacity="1"><g transform="translate(134.571343, 41.344755)"><g><path d="M 0.671875 -1.1875 L 2.203125 -1.4375 L 2.203125 -12.203125 L 0.671875 -12.46875 L 0.671875 -13.65625 L 11.21875 -13.65625 L 11.21875 -10.375 L 9.640625 -10.375 L 9.5 -12.203125 L 4.046875 -12.203125 L 4.046875 -7.5 L 9.328125 -7.5 L 9.328125 -6.046875 L 4.046875 -6.046875 L 4.046875 -1.4375 L 5.578125 -1.1875 L 5.578125 0 L 0.671875 0 Z M 0.671875 -1.1875 "/></g></g></g><g fill="#ffffff" fill-opacity="1"><g transform="translate(146.507676, 41.344755)"><g><path d="M 12.84375 -6.734375 C 12.84375 -4.742188 12.269531 -3.085938 11.125 -1.765625 C 9.976562 -0.453125 8.5 0.203125 6.6875 0.203125 C 4.925781 0.203125 3.492188 -0.453125 2.390625 -1.765625 C 1.285156 -3.085938 0.734375 -4.742188 0.734375 -6.734375 L 0.734375 -6.921875 C 0.734375 -8.910156 1.285156 -10.5625 2.390625 -11.875 C 3.492188 -13.195312 4.925781 -13.859375 6.6875 -13.859375 C 8.5 -13.859375 9.976562 -13.195312 11.125 -11.875 C 12.269531 -10.5625 12.84375 -8.910156 12.84375 -6.921875 Z M 10.984375 -6.9375 C 10.984375 -8.53125 10.601562 -9.828125 9.84375 -10.828125 C 9.082031 -11.835938 8.03125 -12.34375 6.6875 -12.34375 C 5.394531 -12.34375 4.390625 -11.835938 3.671875 -10.828125 C 2.953125 -9.816406 2.59375 -8.519531 2.59375 -6.9375 L 2.59375 -6.734375 C 2.59375 -5.128906 2.953125 -3.820312 3.671875 -2.8125 C 4.390625 -1.8125 5.394531 -1.3125 6.6875 -1.3125 C 8.050781 -1.3125 9.109375 -1.8125 9.859375 -2.8125 C 10.609375 -3.8125 10.984375 -5.117188 10.984375 -6.734375 Z M 10.984375 -6.9375 "/></g></g></g><g fill="#ffffff" fill-opacity="1"><g transform="translate(160.056774, 41.344755)"><g><path d="M 12.84375 -6.734375 C 12.84375 -4.742188 12.269531 -3.085938 11.125 -1.765625 C 9.976562 -0.453125 8.5 0.203125 6.6875 0.203125 C 4.925781 0.203125 3.492188 -0.453125 2.390625 -1.765625 C 1.285156 -3.085938 0.734375 -4.742188 0.734375 -6.734375 L 0.734375 -6.921875 C 0.734375 -8.910156 1.285156 -10.5625 2.390625 -11.875 C 3.492188 -13.195312 4.925781 -13.859375 6.6875 -13.859375 C 8.5 -13.859375 9.976562 -13.195312 11.125 -11.875 C 12.269531 -10.5625 12.84375 -8.910156 12.84375 -6.921875 Z M 10.984375 -6.9375 C 10.984375 -8.53125 10.601562 -9.828125 9.84375 -10.828125 C 9.082031 -11.835938 8.03125 -12.34375 6.6875 -12.34375 C 5.394531 -12.34375 4.390625 -11.835938 3.671875 -10.828125 C 2.953125 -9.816406 2.59375 -8.519531 2.59375 -6.9375 L 2.59375 -6.734375 C 2.59375 -5.128906 2.953125 -3.820312 3.671875 -2.8125 C 4.390625 -1.8125 5.394531 -1.3125 6.6875 -1.3125 C 8.050781 -1.3125 9.109375 -1.8125 9.859375 -2.8125 C 10.609375 -3.8125 10.984375 -5.117188 10.984375 -6.734375 Z M 10.984375 -6.9375 "/></g></g></g><g fill="#ffffff" fill-opacity="1"><g transform="translate(173.605872, 41.344755)"><g><path d="M 6.390625 -13.65625 C 8.171875 -13.65625 9.601562 -13.109375 10.6875 -12.015625 C 11.78125 -10.921875 12.328125 -9.503906 12.328125 -7.765625 L 12.328125 -5.890625 C 12.328125 -4.148438 11.78125 -2.734375 10.6875 -1.640625 C 9.601562 -0.546875 8.171875 0 6.390625 0 L 0.671875 0 L 0.671875 -1.1875 L 2.203125 -1.4375 L 2.203125 -12.203125 L 0.671875 -12.46875 L 0.671875 -13.65625 Z M 4.046875 -12.203125 L 4.046875 -1.4375 L 6.390625 -1.4375 C 7.648438 -1.4375 8.644531 -1.851562 9.375 -2.6875 C 10.101562 -3.519531 10.46875 -4.585938 10.46875 -5.890625 L 10.46875 -7.78125 C 10.46875 -9.070312 10.101562 -10.128906 9.375 -10.953125 C 8.644531 -11.785156 7.648438 -12.203125 6.390625 -12.203125 Z M 4.046875 -12.203125 "/></g></g></g><g fill="#ffffff" fill-opacity="1"><g transform="translate(186.911179, 41.344755)"><g/></g></g><g fill="#ffffff" fill-opacity="1"><g transform="translate(191.683837, 41.344755)"><g><path d="M 0.515625 -1.1875 L 1.53125 -1.328125 L 6.3125 -13.65625 L 7.890625 -13.65625 L 12.578125 -1.328125 L 13.59375 -1.1875 L 13.59375 0 L 9.671875 0 L 9.671875 -1.1875 L 10.703125 -1.359375 L 9.796875 -3.875 L 4.328125 -3.875 L 3.390625 -1.359375 L 4.421875 -1.1875 L 4.421875 0 L 0.515625 0 Z M 4.90625 -5.421875 L 9.234375 -5.421875 L 7.109375 -11.296875 L 7.0625 -11.296875 Z M 4.90625 -5.421875 "/></g></g></g><g fill="#ffffff" fill-opacity="1"><g transform="translate(205.748644, 41.344755)"><g><path d="M 14.046875 -13.65625 L 14.046875 -12.46875 L 12.515625 -12.203125 L 12.515625 0 L 10.671875 0 L 4.09375 -10.546875 L 4.046875 -10.53125 L 4.046875 -1.4375 L 5.578125 -1.1875 L 5.578125 0 L 0.671875 0 L 0.671875 -1.1875 L 2.203125 -1.4375 L 2.203125 -12.203125 L 0.671875 -12.46875 L 0.671875 -13.65625 L 4.046875 -13.65625 L 10.609375 -3.125 L 10.671875 -3.140625 L 10.671875 -12.203125 L 9.140625 -12.46875 L 9.140625 -13.65625 Z M 14.046875 -13.65625 "/></g></g></g><g fill="#ffffff" fill-opacity="1"><g transform="translate(220.376044, 41.344755)"><g><path d="M 6.390625 -13.65625 C 8.171875 -13.65625 9.601562 -13.109375 10.6875 -12.015625 C 11.78125 -10.921875 12.328125 -9.503906 12.328125 -7.765625 L 12.328125 -5.890625 C 12.328125 -4.148438 11.78125 -2.734375 10.6875 -1.640625 C 9.601562 -0.546875 8.171875 0 6.390625 0 L 0.671875 0 L 0.671875 -1.1875 L 2.203125 -1.4375 L 2.203125 -12.203125 L 0.671875 -12.46875 L 0.671875 -13.65625 Z M 4.046875 -12.203125 L 4.046875 -1.4375 L 6.390625 -1.4375 C 7.648438 -1.4375 8.644531 -1.851562 9.375 -2.6875 C 10.101562 -3.519531 10.46875 -4.585938 10.46875 -5.890625 L 10.46875 -7.78125 C 10.46875 -9.070312 10.101562 -10.128906 9.375 -10.953125 C 8.644531 -11.785156 7.648438 -12.203125 6.390625 -12.203125 Z M 4.046875 -12.203125 "/></g></g></g><g fill="#ffffff" fill-opacity="1"><g transform="translate(233.681351, 41.344755)"><g/></g></g><g fill="#ffffff" fill-opacity="1"><g transform="translate(238.454009, 41.344755)"><g><path d="M 6.65625 -13.65625 C 8.082031 -13.65625 9.195312 -13.347656 10 -12.734375 C 10.800781 -12.117188 11.203125 -11.195312 11.203125 -9.96875 C 11.203125 -9.363281 11.007812 -8.820312 10.625 -8.34375 C 10.238281 -7.863281 9.734375 -7.503906 9.109375 -7.265625 C 9.921875 -7.097656 10.566406 -6.695312 11.046875 -6.0625 C 11.523438 -5.425781 11.765625 -4.691406 11.765625 -3.859375 C 11.765625 -2.609375 11.351562 -1.648438 10.53125 -0.984375 C 9.71875 -0.328125 8.617188 0 7.234375 0 L 0.671875 0 L 0.671875 -1.1875 L 2.203125 -1.4375 L 2.203125 -12.203125 L 0.671875 -12.46875 L 0.671875 -13.65625 Z M 4.046875 -6.40625 L 4.046875 -1.4375 L 7.234375 -1.4375 C 8.078125 -1.4375 8.734375 -1.644531 9.203125 -2.0625 C 9.671875 -2.476562 9.90625 -3.070312 9.90625 -3.84375 C 9.90625 -4.644531 9.707031 -5.269531 9.3125 -5.71875 C 8.925781 -6.175781 8.328125 -6.40625 7.515625 -6.40625 Z M 4.046875 -7.859375 L 7.125 -7.859375 C 7.789062 -7.867188 8.328125 -8.0625 8.734375 -8.4375 C 9.148438 -8.820312 9.359375 -9.34375 9.359375 -10 C 9.359375 -10.738281 9.125 -11.289062 8.65625 -11.65625 C 8.195312 -12.019531 7.53125 -12.203125 6.65625 -12.203125 L 4.046875 -12.203125 Z M 4.046875 -7.859375 "/></g></g></g><g fill="#ffffff" fill-opacity="1"><g transform="translate(251.065453, 41.344755)"><g><path d="M 0.671875 0 L 0.671875 -1.1875 L 2.203125 -1.4375 L 2.203125 -12.203125 L 0.671875 -12.46875 L 0.671875 -13.65625 L 11.15625 -13.65625 L 11.15625 -10.375 L 9.578125 -10.375 L 9.421875 -12.203125 L 4.046875 -12.203125 L 4.046875 -7.78125 L 9.265625 -7.78125 L 9.265625 -6.328125 L 4.046875 -6.328125 L 4.046875 -1.4375 L 9.53125 -1.4375 L 9.6875 -3.28125 L 11.265625 -3.28125 L 11.265625 0 Z M 0.671875 0 "/></g></g></g><g fill="#ffffff" fill-opacity="1"><g transform="translate(263.311212, 41.344755)"><g><path d="M 4.75 -12.46875 L 3.515625 -12.28125 L 6.5625 -3.390625 L 6.875 -2.3125 L 6.9375 -2.3125 L 7.25 -3.390625 L 10.296875 -12.28125 L 9.0625 -12.46875 L 9.0625 -13.65625 L 13.375 -13.65625 L 13.375 -12.46875 L 12.28125 -12.328125 L 7.6875 0 L 6.109375 0 L 1.53125 -12.328125 L 0.4375 -12.46875 L 0.4375 -13.65625 L 4.75 -13.65625 Z M 4.75 -12.46875 "/></g></g></g><g fill="#ffffff" fill-opacity="1"><g transform="translate(277.094723, 41.344755)"><g><path d="M 0.671875 0 L 0.671875 -1.1875 L 2.203125 -1.4375 L 2.203125 -12.203125 L 0.671875 -12.46875 L 0.671875 -13.65625 L 11.15625 -13.65625 L 11.15625 -10.375 L 9.578125 -10.375 L 9.421875 -12.203125 L 4.046875 -12.203125 L 4.046875 -7.78125 L 9.265625 -7.78125 L 9.265625 -6.328125 L 4.046875 -6.328125 L 4.046875 -1.4375 L 9.53125 -1.4375 L 9.6875 -3.28125 L 11.265625 -3.28125 L 11.265625 0 Z M 0.671875 0 "/></g></g></g><g fill="#ffffff" fill-opacity="1"><g transform="translate(289.340481, 41.344755)"><g><path d="M 6.65625 -13.65625 C 8.144531 -13.65625 9.285156 -13.320312 10.078125 -12.65625 C 10.878906 -12 11.28125 -11.066406 11.28125 -9.859375 C 11.28125 -9.191406 11.09375 -8.597656 10.71875 -8.078125 C 10.351562 -7.566406 9.828125 -7.164062 9.140625 -6.875 C 9.878906 -6.632812 10.414062 -6.238281 10.75 -5.6875 C 11.082031 -5.132812 11.25 -4.457031 11.25 -3.65625 L 11.25 -2.546875 C 11.25 -2.128906 11.300781 -1.820312 11.40625 -1.625 C 11.507812 -1.425781 11.679688 -1.304688 11.921875 -1.265625 L 12.375 -1.203125 L 12.375 0 L 11.390625 0 C 10.660156 0 10.144531 -0.25 9.84375 -0.75 C 9.539062 -1.25 9.390625 -1.859375 9.390625 -2.578125 L 9.390625 -3.625 C 9.390625 -4.375 9.171875 -4.972656 8.734375 -5.421875 C 8.304688 -5.867188 7.734375 -6.09375 7.015625 -6.09375 L 4.046875 -6.09375 L 4.046875 -1.4375 L 5.578125 -1.1875 L 5.578125 0 L 0.671875 0 L 0.671875 -1.1875 L 2.203125 -1.4375 L 2.203125 -12.203125 L 0.671875 -12.46875 L 0.671875 -13.65625 Z M 4.046875 -7.546875 L 6.46875 -7.546875 C 7.507812 -7.546875 8.265625 -7.742188 8.734375 -8.140625 C 9.203125 -8.535156 9.4375 -9.113281 9.4375 -9.875 C 9.4375 -10.59375 9.207031 -11.160156 8.75 -11.578125 C 8.300781 -11.992188 7.601562 -12.203125 6.65625 -12.203125 L 4.046875 -12.203125 Z M 4.046875 -7.546875 "/></g></g></g><g fill="#ffffff" fill-opacity="1"><g transform="translate(302.336363, 41.344755)"><g><path d="M 0.515625 -1.1875 L 1.53125 -1.328125 L 6.3125 -13.65625 L 7.890625 -13.65625 L 12.578125 -1.328125 L 13.59375 -1.1875 L 13.59375 0 L 9.671875 0 L 9.671875 -1.1875 L 10.703125 -1.359375 L 9.796875 -3.875 L 4.328125 -3.875 L 3.390625 -1.359375 L 4.421875 -1.1875 L 4.421875 0 L 0.515625 0 Z M 4.90625 -5.421875 L 9.234375 -5.421875 L 7.109375 -11.296875 L 7.0625 -11.296875 Z M 4.90625 -5.421875 "/></g></g></g><g fill="#ffffff" fill-opacity="1"><g transform="translate(316.40117, 41.344755)"><g><path d="M 11.546875 -1.546875 C 11.140625 -1.128906 10.546875 -0.734375 9.765625 -0.359375 C 8.984375 0.015625 7.96875 0.203125 6.71875 0.203125 C 4.894531 0.203125 3.40625 -0.4375 2.25 -1.71875 C 1.09375 -3.007812 0.515625 -4.675781 0.515625 -6.71875 L 0.515625 -6.9375 C 0.515625 -9 1.082031 -10.664062 2.21875 -11.9375 C 3.363281 -13.21875 4.882812 -13.859375 6.78125 -13.859375 C 7.800781 -13.859375 8.691406 -13.695312 9.453125 -13.375 C 10.222656 -13.0625 10.867188 -12.648438 11.390625 -12.140625 L 11.390625 -9.65625 L 10.09375 -9.65625 L 9.640625 -11.546875 C 9.335938 -11.796875 8.96875 -12 8.53125 -12.15625 C 8.09375 -12.320312 7.570312 -12.40625 6.96875 -12.40625 C 5.488281 -12.40625 4.347656 -11.898438 3.546875 -10.890625 C 2.753906 -9.878906 2.359375 -8.570312 2.359375 -6.96875 L 2.359375 -6.71875 C 2.359375 -5.082031 2.742188 -3.757812 3.515625 -2.75 C 4.296875 -1.75 5.363281 -1.25 6.71875 -1.25 C 7.457031 -1.25 8.066406 -1.328125 8.546875 -1.484375 C 9.023438 -1.640625 9.40625 -1.8125 9.6875 -2 L 9.6875 -5 L 7.453125 -5.09375 L 7.453125 -6.453125 L 11.546875 -6.453125 Z M 11.546875 -1.546875 "/></g></g></g><g fill="#ffffff" fill-opacity="1"><g transform="translate(329.406428, 41.344755)"><g><path d="M 0.671875 0 L 0.671875 -1.1875 L 2.203125 -1.4375 L 2.203125 -12.203125 L 0.671875 -12.46875 L 0.671875 -13.65625 L 11.15625 -13.65625 L 11.15625 -10.375 L 9.578125 -10.375 L 9.421875 -12.203125 L 4.046875 -12.203125 L 4.046875 -7.78125 L 9.265625 -7.78125 L 9.265625 -6.328125 L 4.046875 -6.328125 L 4.046875 -1.4375 L 9.53125 -1.4375 L 9.6875 -3.28125 L 11.265625 -3.28125 L 11.265625 0 Z M 0.671875 0 "/></g></g></g><g fill="#ffffff" fill-opacity="1"><g transform="translate(341.652187, 41.344755)"><g><path d="M 10.5625 -9.625 L 9.15625 -9.625 L 8.8125 -11.578125 C 8.53125 -11.816406 8.15625 -12.015625 7.6875 -12.171875 C 7.21875 -12.328125 6.671875 -12.40625 6.046875 -12.40625 C 5.066406 -12.40625 4.3125 -12.195312 3.78125 -11.78125 C 3.257812 -11.363281 3 -10.820312 3 -10.15625 C 3 -9.5625 3.265625 -9.066406 3.796875 -8.671875 C 4.335938 -8.273438 5.207031 -7.925781 6.40625 -7.625 C 7.84375 -7.257812 8.929688 -6.726562 9.671875 -6.03125 C 10.421875 -5.34375 10.796875 -4.488281 10.796875 -3.46875 C 10.796875 -2.363281 10.347656 -1.472656 9.453125 -0.796875 C 8.554688 -0.128906 7.382812 0.203125 5.9375 0.203125 C 4.882812 0.203125 3.945312 0.03125 3.125 -0.3125 C 2.3125 -0.65625 1.648438 -1.109375 1.140625 -1.671875 L 1.140625 -4.21875 L 2.53125 -4.21875 L 2.875 -2.25 C 3.238281 -1.957031 3.664062 -1.71875 4.15625 -1.53125 C 4.65625 -1.34375 5.25 -1.25 5.9375 -1.25 C 6.863281 -1.25 7.597656 -1.445312 8.140625 -1.84375 C 8.679688 -2.238281 8.953125 -2.769531 8.953125 -3.4375 C 8.953125 -4.0625 8.71875 -4.585938 8.25 -5.015625 C 7.78125 -5.441406 6.953125 -5.796875 5.765625 -6.078125 C 4.316406 -6.421875 3.1875 -6.925781 2.375 -7.59375 C 1.5625 -8.269531 1.15625 -9.113281 1.15625 -10.125 C 1.15625 -11.195312 1.609375 -12.085938 2.515625 -12.796875 C 3.421875 -13.503906 4.597656 -13.859375 6.046875 -13.859375 C 7.003906 -13.859375 7.875 -13.691406 8.65625 -13.359375 C 9.445312 -13.035156 10.082031 -12.640625 10.5625 -12.171875 Z M 10.5625 -9.625 "/></g></g></g><g fill="#ffffff" fill-opacity="1"><g transform="translate(353.34473, 41.344755)"><g/></g></g><g fill="#ffffff" fill-opacity="1"><g transform="translate(358.117388, 41.344755)"><g><path d="M 11.265625 -9.46875 L 9.953125 -9.46875 L 9.609375 -11.40625 C 9.304688 -11.695312 8.9375 -11.9375 8.5 -12.125 C 8.0625 -12.3125 7.539062 -12.40625 6.9375 -12.40625 C 5.519531 -12.40625 4.425781 -11.890625 3.65625 -10.859375 C 2.894531 -9.828125 2.515625 -8.519531 2.515625 -6.9375 L 2.515625 -6.734375 C 2.515625 -5.148438 2.882812 -3.835938 3.625 -2.796875 C 4.375 -1.765625 5.414062 -1.25 6.75 -1.25 C 7.363281 -1.25 7.925781 -1.34375 8.4375 -1.53125 C 8.945312 -1.726562 9.335938 -1.96875 9.609375 -2.25 L 9.953125 -4.1875 L 11.265625 -4.1875 L 11.265625 -1.75 C 10.867188 -1.25 10.273438 -0.796875 9.484375 -0.390625 C 8.703125 0.00390625 7.789062 0.203125 6.75 0.203125 C 4.96875 0.203125 3.507812 -0.453125 2.375 -1.765625 C 1.238281 -3.085938 0.671875 -4.742188 0.671875 -6.734375 L 0.671875 -6.921875 C 0.671875 -8.921875 1.226562 -10.578125 2.34375 -11.890625 C 3.46875 -13.203125 4.9375 -13.859375 6.75 -13.859375 C 7.789062 -13.859375 8.703125 -13.65625 9.484375 -13.25 C 10.273438 -12.851562 10.867188 -12.40625 11.265625 -11.90625 Z M 11.265625 -9.46875 "/></g></g></g><g fill="#ffffff" fill-opacity="1"><g transform="translate(370.503795, 41.344755)"><g><path d="M 6.9375 -13.65625 C 8.394531 -13.65625 9.53125 -13.28125 10.34375 -12.53125 C 11.15625 -11.78125 11.5625 -10.796875 11.5625 -9.578125 C 11.5625 -8.335938 11.15625 -7.34375 10.34375 -6.59375 C 9.53125 -5.851562 8.394531 -5.484375 6.9375 -5.484375 L 4.046875 -5.484375 L 4.046875 -1.4375 L 5.578125 -1.1875 L 5.578125 0 L 0.671875 0 L 0.671875 -1.1875 L 2.203125 -1.4375 L 2.203125 -12.203125 L 0.671875 -12.46875 L 0.671875 -13.65625 Z M 4.046875 -6.921875 L 6.9375 -6.921875 C 7.863281 -6.921875 8.554688 -7.171875 9.015625 -7.671875 C 9.484375 -8.171875 9.71875 -8.796875 9.71875 -9.546875 C 9.71875 -10.304688 9.484375 -10.9375 9.015625 -11.4375 C 8.554688 -11.945312 7.863281 -12.203125 6.9375 -12.203125 L 4.046875 -12.203125 Z M 4.046875 -6.921875 "/></g></g></g><g fill="#ffffff" fill-opacity="1"><g transform="translate(382.702671, 41.344755)"><g><path d="M 0.65625 -12.46875 L 0.65625 -13.65625 L 5.5625 -13.65625 L 5.5625 -12.46875 L 4.03125 -12.203125 L 4.03125 -1.4375 L 5.5625 -1.1875 L 5.5625 0 L 0.65625 0 L 0.65625 -1.1875 L 2.1875 -1.4375 L 2.1875 -12.203125 Z M 0.65625 -12.46875 "/></g></g></g><g fill="#ffffff" fill-opacity="1"><g transform="translate(388.909939, 41.344755)"><g/></g></g><g fill="#ffffff" fill-opacity="1"><g transform="translate(393.682597, 41.344755)"><g><path d="M 6.9375 -13.65625 C 8.394531 -13.65625 9.53125 -13.28125 10.34375 -12.53125 C 11.15625 -11.78125 11.5625 -10.796875 11.5625 -9.578125 C 11.5625 -8.335938 11.15625 -7.34375 10.34375 -6.59375 C 9.53125 -5.851562 8.394531 -5.484375 6.9375 -5.484375 L 4.046875 -5.484375 L 4.046875 -1.4375 L 5.578125 -1.1875 L 5.578125 0 L 0.671875 0 L 0.671875 -1.1875 L 2.203125 -1.4375 L 2.203125 -12.203125 L 0.671875 -12.46875 L 0.671875 -13.65625 Z M 4.046875 -6.921875 L 6.9375 -6.921875 C 7.863281 -6.921875 8.554688 -7.171875 9.015625 -7.671875 C 9.484375 -8.171875 9.71875 -8.796875 9.71875 -9.546875 C 9.71875 -10.304688 9.484375 -10.9375 9.015625 -11.4375 C 8.554688 -11.945312 7.863281 -12.203125 6.9375 -12.203125 L 4.046875 -12.203125 Z M 4.046875 -6.921875 "/></g></g></g><g fill="#ffffff" fill-opacity="1"><g transform="translate(405.881474, 41.344755)"><g><path d="M 6.65625 -13.65625 C 8.144531 -13.65625 9.285156 -13.320312 10.078125 -12.65625 C 10.878906 -12 11.28125 -11.066406 11.28125 -9.859375 C 11.28125 -9.191406 11.09375 -8.597656 10.71875 -8.078125 C 10.351562 -7.566406 9.828125 -7.164062 9.140625 -6.875 C 9.878906 -6.632812 10.414062 -6.238281 10.75 -5.6875 C 11.082031 -5.132812 11.25 -4.457031 11.25 -3.65625 L 11.25 -2.546875 C 11.25 -2.128906 11.300781 -1.820312 11.40625 -1.625 C 11.507812 -1.425781 11.679688 -1.304688 11.921875 -1.265625 L 12.375 -1.203125 L 12.375 0 L 11.390625 0 C 10.660156 0 10.144531 -0.25 9.84375 -0.75 C 9.539062 -1.25 9.390625 -1.859375 9.390625 -2.578125 L 9.390625 -3.625 C 9.390625 -4.375 9.171875 -4.972656 8.734375 -5.421875 C 8.304688 -5.867188 7.734375 -6.09375 7.015625 -6.09375 L 4.046875 -6.09375 L 4.046875 -1.4375 L 5.578125 -1.1875 L 5.578125 0 L 0.671875 0 L 0.671875 -1.1875 L 2.203125 -1.4375 L 2.203125 -12.203125 L 0.671875 -12.46875 L 0.671875 -13.65625 Z M 4.046875 -7.546875 L 6.46875 -7.546875 C 7.507812 -7.546875 8.265625 -7.742188 8.734375 -8.140625 C 9.203125 -8.535156 9.4375 -9.113281 9.4375 -9.875 C 9.4375 -10.59375 9.207031 -11.160156 8.75 -11.578125 C 8.300781 -11.992188 7.601562 -12.203125 6.65625 -12.203125 L 4.046875 -12.203125 Z M 4.046875 -7.546875 "/></g></g></g><g fill="#ffffff" fill-opacity="1"><g transform="translate(418.877355, 41.344755)"><g><path d="M 0.671875 0 L 0.671875 -1.1875 L 2.203125 -1.4375 L 2.203125 -12.203125 L 0.671875 -12.46875 L 0.671875 -13.65625 L 11.15625 -13.65625 L 11.15625 -10.375 L 9.578125 -10.375 L 9.421875 -12.203125 L 4.046875 -12.203125 L 4.046875 -7.78125 L 9.265625 -7.78125 L 9.265625 -6.328125 L 4.046875 -6.328125 L 4.046875 -1.4375 L 9.53125 -1.4375 L 9.6875 -3.28125 L 11.265625 -3.28125 L 11.265625 0 Z M 0.671875 0 "/></g></g></g><g fill="#ffffff" fill-opacity="1"><g transform="translate(431.123114, 41.344755)"><g><path d="M 6.390625 -13.65625 C 8.171875 -13.65625 9.601562 -13.109375 10.6875 -12.015625 C 11.78125 -10.921875 12.328125 -9.503906 12.328125 -7.765625 L 12.328125 -5.890625 C 12.328125 -4.148438 11.78125 -2.734375 10.6875 -1.640625 C 9.601562 -0.546875 8.171875 0 6.390625 0 L 0.671875 0 L 0.671875 -1.1875 L 2.203125 -1.4375 L 2.203125 -12.203125 L 0.671875 -12.46875 L 0.671875 -13.65625 Z M 4.046875 -12.203125 L 4.046875 -1.4375 L 6.390625 -1.4375 C 7.648438 -1.4375 8.644531 -1.851562 9.375 -2.6875 C 10.101562 -3.519531 10.46875 -4.585938 10.46875 -5.890625 L 10.46875 -7.78125 C 10.46875 -9.070312 10.101562 -10.128906 9.375 -10.953125 C 8.644531 -11.785156 7.648438 -12.203125 6.390625 -12.203125 Z M 4.046875 -12.203125 "/></g></g></g><g fill="#ffffff" fill-opacity="1"><g transform="translate(444.428422, 41.344755)"><g><path d="M 0.65625 -12.46875 L 0.65625 -13.65625 L 5.5625 -13.65625 L 5.5625 -12.46875 L 4.03125 -12.203125 L 4.03125 -1.4375 L 5.5625 -1.1875 L 5.5625 0 L 0.65625 0 L 0.65625 -1.1875 L 2.1875 -1.4375 L 2.1875 -12.203125 Z M 0.65625 -12.46875 "/></g></g></g><g fill="#ffffff" fill-opacity="1"><g transform="translate(450.63569, 41.344755)"><g><path d="M 11.265625 -9.46875 L 9.953125 -9.46875 L 9.609375 -11.40625 C 9.304688 -11.695312 8.9375 -11.9375 8.5 -12.125 C 8.0625 -12.3125 7.539062 -12.40625 6.9375 -12.40625 C 5.519531 -12.40625 4.425781 -11.890625 3.65625 -10.859375 C 2.894531 -9.828125 2.515625 -8.519531 2.515625 -6.9375 L 2.515625 -6.734375 C 2.515625 -5.148438 2.882812 -3.835938 3.625 -2.796875 C 4.375 -1.765625 5.414062 -1.25 6.75 -1.25 C 7.363281 -1.25 7.925781 -1.34375 8.4375 -1.53125 C 8.945312 -1.726562 9.335938 -1.96875 9.609375 -2.25 L 9.953125 -4.1875 L 11.265625 -4.1875 L 11.265625 -1.75 C 10.867188 -1.25 10.273438 -0.796875 9.484375 -0.390625 C 8.703125 0.00390625 7.789062 0.203125 6.75 0.203125 C 4.96875 0.203125 3.507812 -0.453125 2.375 -1.765625 C 1.238281 -3.085938 0.671875 -4.742188 0.671875 -6.734375 L 0.671875 -6.921875 C 0.671875 -8.921875 1.226562 -10.578125 2.34375 -11.890625 C 3.46875 -13.203125 4.9375 -13.859375 6.75 -13.859375 C 7.789062 -13.859375 8.703125 -13.65625 9.484375 -13.25 C 10.273438 -12.851562 10.867188 -12.40625 11.265625 -11.90625 Z M 11.265625 -9.46875 "/></g></g></g><g fill="#ffffff" fill-opacity="1"><g transform="translate(463.022097, 41.344755)"><g><path d="M 11.703125 -13.65625 L 11.703125 -10.640625 L 10.125 -10.640625 L 9.984375 -12.203125 L 6.953125 -12.203125 L 6.953125 -1.4375 L 8.484375 -1.1875 L 8.484375 0 L 3.578125 0 L 3.578125 -1.1875 L 5.109375 -1.4375 L 5.109375 -12.203125 L 2.0625 -12.203125 L 1.9375 -10.640625 L 0.34375 -10.640625 L 0.34375 -13.65625 Z M 11.703125 -13.65625 "/></g></g></g><g fill="#ffffff" fill-opacity="1"><g transform="translate(475.061571, 41.344755)"><g><path d="M 0.65625 -12.46875 L 0.65625 -13.65625 L 5.5625 -13.65625 L 5.5625 -12.46875 L 4.03125 -12.203125 L 4.03125 -1.4375 L 5.5625 -1.1875 L 5.5625 0 L 0.65625 0 L 0.65625 -1.1875 L 2.1875 -1.4375 L 2.1875 -12.203125 Z M 0.65625 -12.46875 "/></g></g></g><g fill="#ffffff" fill-opacity="1"><g transform="translate(481.26884, 41.344755)"><g><path d="M 12.84375 -6.734375 C 12.84375 -4.742188 12.269531 -3.085938 11.125 -1.765625 C 9.976562 -0.453125 8.5 0.203125 6.6875 0.203125 C 4.925781 0.203125 3.492188 -0.453125 2.390625 -1.765625 C 1.285156 -3.085938 0.734375 -4.742188 0.734375 -6.734375 L 0.734375 -6.921875 C 0.734375 -8.910156 1.285156 -10.5625 2.390625 -11.875 C 3.492188 -13.195312 4.925781 -13.859375 6.6875 -13.859375 C 8.5 -13.859375 9.976562 -13.195312 11.125 -11.875 C 12.269531 -10.5625 12.84375 -8.910156 12.84375 -6.921875 Z M 10.984375 -6.9375 C 10.984375 -8.53125 10.601562 -9.828125 9.84375 -10.828125 C 9.082031 -11.835938 8.03125 -12.34375 6.6875 -12.34375 C 5.394531 -12.34375 4.390625 -11.835938 3.671875 -10.828125 C 2.953125 -9.816406 2.59375 -8.519531 2.59375 -6.9375 L 2.59375 -6.734375 C 2.59375 -5.128906 2.953125 -3.820312 3.671875 -2.8125 C 4.390625 -1.8125 5.394531 -1.3125 6.6875 -1.3125 C 8.050781 -1.3125 9.109375 -1.8125 9.859375 -2.8125 C 10.609375 -3.8125 10.984375 -5.117188 10.984375 -6.734375 Z M 10.984375 -6.9375 "/></g></g></g><g fill="#ffffff" fill-opacity="1"><g transform="translate(494.817937, 41.344755)"><g><path d="M 14.046875 -13.65625 L 14.046875 -12.46875 L 12.515625 -12.203125 L 12.515625 0 L 10.671875 0 L 4.09375 -10.546875 L 4.046875 -10.53125 L 4.046875 -1.4375 L 5.578125 -1.1875 L 5.578125 0 L 0.671875 0 L 0.671875 -1.1875 L 2.203125 -1.4375 L 2.203125 -12.203125 L 0.671875 -12.46875 L 0.671875 -13.65625 L 4.046875 -13.65625 L 10.609375 -3.125 L 10.671875 -3.140625 L 10.671875 -12.203125 L 9.140625 -12.46875 L 9.140625 -13.65625 Z M 14.046875 -13.65625 "/></g></g></g><g fill="#ffffff" fill-opacity="1"><g transform="translate(509.445337, 41.344755)"><g/></g></g><g fill="#ffffff" fill-opacity="1"><g transform="translate(514.217995, 41.344755)"><g><path d="M 5.46875 -13.65625 L 5.46875 -12.46875 L 3.9375 -12.203125 L 3.9375 -4.40625 C 3.9375 -3.375 4.226562 -2.585938 4.8125 -2.046875 C 5.40625 -1.515625 6.1875 -1.25 7.15625 -1.25 C 8.164062 -1.25 8.976562 -1.515625 9.59375 -2.046875 C 10.21875 -2.578125 10.53125 -3.363281 10.53125 -4.40625 L 10.53125 -12.203125 L 9 -12.46875 L 9 -13.65625 L 13.90625 -13.65625 L 13.90625 -12.46875 L 12.375 -12.203125 L 12.375 -4.40625 C 12.375 -2.914062 11.890625 -1.773438 10.921875 -0.984375 C 9.960938 -0.191406 8.707031 0.203125 7.15625 0.203125 C 5.644531 0.203125 4.421875 -0.191406 3.484375 -0.984375 C 2.554688 -1.773438 2.09375 -2.914062 2.09375 -4.40625 L 2.09375 -12.203125 L 0.5625 -12.46875 L 0.5625 -13.65625 Z M 5.46875 -13.65625 "/></g></g></g><g fill="#ffffff" fill-opacity="1"><g transform="translate(528.66724, 41.344755)"><g><path d="M 10.5625 -9.625 L 9.15625 -9.625 L 8.8125 -11.578125 C 8.53125 -11.816406 8.15625 -12.015625 7.6875 -12.171875 C 7.21875 -12.328125 6.671875 -12.40625 6.046875 -12.40625 C 5.066406 -12.40625 4.3125 -12.195312 3.78125 -11.78125 C 3.257812 -11.363281 3 -10.820312 3 -10.15625 C 3 -9.5625 3.265625 -9.066406 3.796875 -8.671875 C 4.335938 -8.273438 5.207031 -7.925781 6.40625 -7.625 C 7.84375 -7.257812 8.929688 -6.726562 9.671875 -6.03125 C 10.421875 -5.34375 10.796875 -4.488281 10.796875 -3.46875 C 10.796875 -2.363281 10.347656 -1.472656 9.453125 -0.796875 C 8.554688 -0.128906 7.382812 0.203125 5.9375 0.203125 C 4.882812 0.203125 3.945312 0.03125 3.125 -0.3125 C 2.3125 -0.65625 1.648438 -1.109375 1.140625 -1.671875 L 1.140625 -4.21875 L 2.53125 -4.21875 L 2.875 -2.25 C 3.238281 -1.957031 3.664062 -1.71875 4.15625 -1.53125 C 4.65625 -1.34375 5.25 -1.25 5.9375 -1.25 C 6.863281 -1.25 7.597656 -1.445312 8.140625 -1.84375 C 8.679688 -2.238281 8.953125 -2.769531 8.953125 -3.4375 C 8.953125 -4.0625 8.71875 -4.585938 8.25 -5.015625 C 7.78125 -5.441406 6.953125 -5.796875 5.765625 -6.078125 C 4.316406 -6.421875 3.1875 -6.925781 2.375 -7.59375 C 1.5625 -8.269531 1.15625 -9.113281 1.15625 -10.125 C 1.15625 -11.195312 1.609375 -12.085938 2.515625 -12.796875 C 3.421875 -13.503906 4.597656 -13.859375 6.046875 -13.859375 C 7.003906 -13.859375 7.875 -13.691406 8.65625 -13.359375 C 9.445312 -13.035156 10.082031 -12.640625 10.5625 -12.171875 Z M 10.5625 -9.625 "/></g></g></g><g fill="#ffffff" fill-opacity="1"><g transform="translate(540.359783, 41.344755)"><g><path d="M 0.65625 -12.46875 L 0.65625 -13.65625 L 5.5625 -13.65625 L 5.5625 -12.46875 L 4.03125 -12.203125 L 4.03125 -1.4375 L 5.5625 -1.1875 L 5.5625 0 L 0.65625 0 L 0.65625 -1.1875 L 2.1875 -1.4375 L 2.1875 -12.203125 Z M 0.65625 -12.46875 "/></g></g></g><g fill="#ffffff" fill-opacity="1"><g transform="translate(546.567052, 41.344755)"><g><path d="M 14.046875 -13.65625 L 14.046875 -12.46875 L 12.515625 -12.203125 L 12.515625 0 L 10.671875 0 L 4.09375 -10.546875 L 4.046875 -10.53125 L 4.046875 -1.4375 L 5.578125 -1.1875 L 5.578125 0 L 0.671875 0 L 0.671875 -1.1875 L 2.203125 -1.4375 L 2.203125 -12.203125 L 0.671875 -12.46875 L 0.671875 -13.65625 L 4.046875 -13.65625 L 10.609375 -3.125 L 10.671875 -3.140625 L 10.671875 -12.203125 L 9.140625 -12.46875 L 9.140625 -13.65625 Z M 14.046875 -13.65625 "/></g></g></g><g fill="#ffffff" fill-opacity="1"><g transform="translate(561.194451, 41.344755)"><g><path d="M 11.546875 -1.546875 C 11.140625 -1.128906 10.546875 -0.734375 9.765625 -0.359375 C 8.984375 0.015625 7.96875 0.203125 6.71875 0.203125 C 4.894531 0.203125 3.40625 -0.4375 2.25 -1.71875 C 1.09375 -3.007812 0.515625 -4.675781 0.515625 -6.71875 L 0.515625 -6.9375 C 0.515625 -9 1.082031 -10.664062 2.21875 -11.9375 C 3.363281 -13.21875 4.882812 -13.859375 6.78125 -13.859375 C 7.800781 -13.859375 8.691406 -13.695312 9.453125 -13.375 C 10.222656 -13.0625 10.867188 -12.648438 11.390625 -12.140625 L 11.390625 -9.65625 L 10.09375 -9.65625 L 9.640625 -11.546875 C 9.335938 -11.796875 8.96875 -12 8.53125 -12.15625 C 8.09375 -12.320312 7.570312 -12.40625 6.96875 -12.40625 C 5.488281 -12.40625 4.347656 -11.898438 3.546875 -10.890625 C 2.753906 -9.878906 2.359375 -8.570312 2.359375 -6.96875 L 2.359375 -6.71875 C 2.359375 -5.082031 2.742188 -3.757812 3.515625 -2.75 C 4.296875 -1.75 5.363281 -1.25 6.71875 -1.25 C 7.457031 -1.25 8.066406 -1.328125 8.546875 -1.484375 C 9.023438 -1.640625 9.40625 -1.8125 9.6875 -2 L 9.6875 -5 L 7.453125 -5.09375 L 7.453125 -6.453125 L 11.546875 -6.453125 Z M 11.546875 -1.546875 "/></g></g></g><g fill="#ffffff" fill-opacity="1"><g transform="translate(574.19971, 41.344755)"><g/></g></g><g fill="#ffffff" fill-opacity="1"><g transform="translate(578.972367, 41.344755)"><g><path d="M 11.265625 -9.46875 L 9.953125 -9.46875 L 9.609375 -11.40625 C 9.304688 -11.695312 8.9375 -11.9375 8.5 -12.125 C 8.0625 -12.3125 7.539062 -12.40625 6.9375 -12.40625 C 5.519531 -12.40625 4.425781 -11.890625 3.65625 -10.859375 C 2.894531 -9.828125 2.515625 -8.519531 2.515625 -6.9375 L 2.515625 -6.734375 C 2.515625 -5.148438 2.882812 -3.835938 3.625 -2.796875 C 4.375 -1.765625 5.414062 -1.25 6.75 -1.25 C 7.363281 -1.25 7.925781 -1.34375 8.4375 -1.53125 C 8.945312 -1.726562 9.335938 -1.96875 9.609375 -2.25 L 9.953125 -4.1875 L 11.265625 -4.1875 L 11.265625 -1.75 C 10.867188 -1.25 10.273438 -0.796875 9.484375 -0.390625 C 8.703125 0.00390625 7.789062 0.203125 6.75 0.203125 C 4.96875 0.203125 3.507812 -0.453125 2.375 -1.765625 C 1.238281 -3.085938 0.671875 -4.742188 0.671875 -6.734375 L 0.671875 -6.921875 C 0.671875 -8.921875 1.226562 -10.578125 2.34375 -11.890625 C 3.46875 -13.203125 4.9375 -13.859375 6.75 -13.859375 C 7.789062 -13.859375 8.703125 -13.65625 9.484375 -13.25 C 10.273438 -12.851562 10.867188 -12.40625 11.265625 -11.90625 Z M 11.265625 -9.46875 "/></g></g></g><g fill="#ffffff" fill-opacity="1"><g transform="translate(591.358774, 41.344755)"><g><path d="M 12.84375 -6.734375 C 12.84375 -4.742188 12.269531 -3.085938 11.125 -1.765625 C 9.976562 -0.453125 8.5 0.203125 6.6875 0.203125 C 4.925781 0.203125 3.492188 -0.453125 2.390625 -1.765625 C 1.285156 -3.085938 0.734375 -4.742188 0.734375 -6.734375 L 0.734375 -6.921875 C 0.734375 -8.910156 1.285156 -10.5625 2.390625 -11.875 C 3.492188 -13.195312 4.925781 -13.859375 6.6875 -13.859375 C 8.5 -13.859375 9.976562 -13.195312 11.125 -11.875 C 12.269531 -10.5625 12.84375 -8.910156 12.84375 -6.921875 Z M 10.984375 -6.9375 C 10.984375 -8.53125 10.601562 -9.828125 9.84375 -10.828125 C 9.082031 -11.835938 8.03125 -12.34375 6.6875 -12.34375 C 5.394531 -12.34375 4.390625 -11.835938 3.671875 -10.828125 C 2.953125 -9.816406 2.59375 -8.519531 2.59375 -6.9375 L 2.59375 -6.734375 C 2.59375 -5.128906 2.953125 -3.820312 3.671875 -2.8125 C 4.390625 -1.8125 5.394531 -1.3125 6.6875 -1.3125 C 8.050781 -1.3125 9.109375 -1.8125 9.859375 -2.8125 C 10.609375 -3.8125 10.984375 -5.117188 10.984375 -6.734375 Z M 10.984375 -6.9375 "/></g></g></g><g fill="#ffffff" fill-opacity="1"><g transform="translate(604.907872, 41.344755)"><g><path d="M 10.5625 -9.625 L 9.15625 -9.625 L 8.8125 -11.578125 C 8.53125 -11.816406 8.15625 -12.015625 7.6875 -12.171875 C 7.21875 -12.328125 6.671875 -12.40625 6.046875 -12.40625 C 5.066406 -12.40625 4.3125 -12.195312 3.78125 -11.78125 C 3.257812 -11.363281 3 -10.820312 3 -10.15625 C 3 -9.5625 3.265625 -9.066406 3.796875 -8.671875 C 4.335938 -8.273438 5.207031 -7.925781 6.40625 -7.625 C 7.84375 -7.257812 8.929688 -6.726562 9.671875 -6.03125 C 10.421875 -5.34375 10.796875 -4.488281 10.796875 -3.46875 C 10.796875 -2.363281 10.347656 -1.472656 9.453125 -0.796875 C 8.554688 -0.128906 7.382812 0.203125 5.9375 0.203125 C 4.882812 0.203125 3.945312 0.03125 3.125 -0.3125 C 2.3125 -0.65625 1.648438 -1.109375 1.140625 -1.671875 L 1.140625 -4.21875 L 2.53125 -4.21875 L 2.875 -2.25 C 3.238281 -1.957031 3.664062 -1.71875 4.15625 -1.53125 C 4.65625 -1.34375 5.25 -1.25 5.9375 -1.25 C 6.863281 -1.25 7.597656 -1.445312 8.140625 -1.84375 C 8.679688 -2.238281 8.953125 -2.769531 8.953125 -3.4375 C 8.953125 -4.0625 8.71875 -4.585938 8.25 -5.015625 C 7.78125 -5.441406 6.953125 -5.796875 5.765625 -6.078125 C 4.316406 -6.421875 3.1875 -6.925781 2.375 -7.59375 C 1.5625 -8.269531 1.15625 -9.113281 1.15625 -10.125 C 1.15625 -11.195312 1.609375 -12.085938 2.515625 -12.796875 C 3.421875 -13.503906 4.597656 -13.859375 6.046875 -13.859375 C 7.003906 -13.859375 7.875 -13.691406 8.65625 -13.359375 C 9.445312 -13.035156 10.082031 -12.640625 10.5625 -12.171875 Z M 10.5625 -9.625 "/></g></g></g><g fill="#ffffff" fill-opacity="1"><g transform="translate(616.600415, 41.344755)"><g><path d="M 11.703125 -13.65625 L 11.703125 -10.640625 L 10.125 -10.640625 L 9.984375 -12.203125 L 6.953125 -12.203125 L 6.953125 -1.4375 L 8.484375 -1.1875 L 8.484375 0 L 3.578125 0 L 3.578125 -1.1875 L 5.109375 -1.4375 L 5.109375 -12.203125 L 2.0625 -12.203125 L 1.9375 -10.640625 L 0.34375 -10.640625 L 0.34375 -13.65625 Z M 11.703125 -13.65625 "/></g></g></g><g fill="#ffffff" fill-opacity="1"><g transform="translate(628.645172, 41.344755)"><g/></g></g><g fill="#ffffff" fill-opacity="1"><g transform="translate(199.641945, 67.965729)"><g><path d="M 6.9375 -13.65625 C 8.394531 -13.65625 9.53125 -13.28125 10.34375 -12.53125 C 11.15625 -11.78125 11.5625 -10.796875 11.5625 -9.578125 C 11.5625 -8.335938 11.15625 -7.34375 10.34375 -6.59375 C 9.53125 -5.851562 8.394531 -5.484375 6.9375 -5.484375 L 4.046875 -5.484375 L 4.046875 -1.4375 L 5.578125 -1.1875 L 5.578125 0 L 0.671875 0 L 0.671875 -1.1875 L 2.203125 -1.4375 L 2.203125 -12.203125 L 0.671875 -12.46875 L 0.671875 -13.65625 Z M 4.046875 -6.921875 L 6.9375 -6.921875 C 7.863281 -6.921875 8.554688 -7.171875 9.015625 -7.671875 C 9.484375 -8.171875 9.71875 -8.796875 9.71875 -9.546875 C 9.71875 -10.304688 9.484375 -10.9375 9.015625 -11.4375 C 8.554688 -11.945312 7.863281 -12.203125 6.9375 -12.203125 L 4.046875 -12.203125 Z M 4.046875 -6.921875 "/></g></g></g><g fill="#ffffff" fill-opacity="1"><g transform="translate(211.840821, 67.965729)"><g><path d="M 0.515625 -1.1875 L 1.53125 -1.328125 L 6.3125 -13.65625 L 7.890625 -13.65625 L 12.578125 -1.328125 L 13.59375 -1.1875 L 13.59375 0 L 9.671875 0 L 9.671875 -1.1875 L 10.703125 -1.359375 L 9.796875 -3.875 L 4.328125 -3.875 L 3.390625 -1.359375 L 4.421875 -1.1875 L 4.421875 0 L 0.515625 0 Z M 4.90625 -5.421875 L 9.234375 -5.421875 L 7.109375 -11.296875 L 7.0625 -11.296875 Z M 4.90625 -5.421875 "/></g></g></g><g fill="#ffffff" fill-opacity="1"><g transform="translate(225.905628, 67.965729)"><g><path d="M 10.5625 -9.625 L 9.15625 -9.625 L 8.8125 -11.578125 C 8.53125 -11.816406 8.15625 -12.015625 7.6875 -12.171875 C 7.21875 -12.328125 6.671875 -12.40625 6.046875 -12.40625 C 5.066406 -12.40625 4.3125 -12.195312 3.78125 -11.78125 C 3.257812 -11.363281 3 -10.820312 3 -10.15625 C 3 -9.5625 3.265625 -9.066406 3.796875 -8.671875 C 4.335938 -8.273438 5.207031 -7.925781 6.40625 -7.625 C 7.84375 -7.257812 8.929688 -6.726562 9.671875 -6.03125 C 10.421875 -5.34375 10.796875 -4.488281 10.796875 -3.46875 C 10.796875 -2.363281 10.347656 -1.472656 9.453125 -0.796875 C 8.554688 -0.128906 7.382812 0.203125 5.9375 0.203125 C 4.882812 0.203125 3.945312 0.03125 3.125 -0.3125 C 2.3125 -0.65625 1.648438 -1.109375 1.140625 -1.671875 L 1.140625 -4.21875 L 2.53125 -4.21875 L 2.875 -2.25 C 3.238281 -1.957031 3.664062 -1.71875 4.15625 -1.53125 C 4.65625 -1.34375 5.25 -1.25 5.9375 -1.25 C 6.863281 -1.25 7.597656 -1.445312 8.140625 -1.84375 C 8.679688 -2.238281 8.953125 -2.769531 8.953125 -3.4375 C 8.953125 -4.0625 8.71875 -4.585938 8.25 -5.015625 C 7.78125 -5.441406 6.953125 -5.796875 5.765625 -6.078125 C 4.316406 -6.421875 3.1875 -6.925781 2.375 -7.59375 C 1.5625 -8.269531 1.15625 -9.113281 1.15625 -10.125 C 1.15625 -11.195312 1.609375 -12.085938 2.515625 -12.796875 C 3.421875 -13.503906 4.597656 -13.859375 6.046875 -13.859375 C 7.003906 -13.859375 7.875 -13.691406 8.65625 -13.359375 C 9.445312 -13.035156 10.082031 -12.640625 10.5625 -12.171875 Z M 10.5625 -9.625 "/></g></g></g><g fill="#ffffff" fill-opacity="1"><g transform="translate(237.598171, 67.965729)"><g><path d="M 10.5625 -9.625 L 9.15625 -9.625 L 8.8125 -11.578125 C 8.53125 -11.816406 8.15625 -12.015625 7.6875 -12.171875 C 7.21875 -12.328125 6.671875 -12.40625 6.046875 -12.40625 C 5.066406 -12.40625 4.3125 -12.195312 3.78125 -11.78125 C 3.257812 -11.363281 3 -10.820312 3 -10.15625 C 3 -9.5625 3.265625 -9.066406 3.796875 -8.671875 C 4.335938 -8.273438 5.207031 -7.925781 6.40625 -7.625 C 7.84375 -7.257812 8.929688 -6.726562 9.671875 -6.03125 C 10.421875 -5.34375 10.796875 -4.488281 10.796875 -3.46875 C 10.796875 -2.363281 10.347656 -1.472656 9.453125 -0.796875 C 8.554688 -0.128906 7.382812 0.203125 5.9375 0.203125 C 4.882812 0.203125 3.945312 0.03125 3.125 -0.3125 C 2.3125 -0.65625 1.648438 -1.109375 1.140625 -1.671875 L 1.140625 -4.21875 L 2.53125 -4.21875 L 2.875 -2.25 C 3.238281 -1.957031 3.664062 -1.71875 4.15625 -1.53125 C 4.65625 -1.34375 5.25 -1.25 5.9375 -1.25 C 6.863281 -1.25 7.597656 -1.445312 8.140625 -1.84375 C 8.679688 -2.238281 8.953125 -2.769531 8.953125 -3.4375 C 8.953125 -4.0625 8.71875 -4.585938 8.25 -5.015625 C 7.78125 -5.441406 6.953125 -5.796875 5.765625 -6.078125 C 4.316406 -6.421875 3.1875 -6.925781 2.375 -7.59375 C 1.5625 -8.269531 1.15625 -9.113281 1.15625 -10.125 C 1.15625 -11.195312 1.609375 -12.085938 2.515625 -12.796875 C 3.421875 -13.503906 4.597656 -13.859375 6.046875 -13.859375 C 7.003906 -13.859375 7.875 -13.691406 8.65625 -13.359375 C 9.445312 -13.035156 10.082031 -12.640625 10.5625 -12.171875 Z M 10.5625 -9.625 "/></g></g></g><g fill="#ffffff" fill-opacity="1"><g transform="translate(249.290715, 67.965729)"><g><path d="M 6.03125 -5.046875 L 1.4375 -5.046875 L 1.4375 -6.5 L 6.03125 -6.5 Z M 6.03125 -5.046875 "/></g></g></g><g fill="#ffffff" fill-opacity="1"><g transform="translate(256.763815, 67.965729)"><g><path d="M 11.703125 -13.65625 L 11.703125 -10.640625 L 10.125 -10.640625 L 9.984375 -12.203125 L 6.953125 -12.203125 L 6.953125 -1.4375 L 8.484375 -1.1875 L 8.484375 0 L 3.578125 0 L 3.578125 -1.1875 L 5.109375 -1.4375 L 5.109375 -12.203125 L 2.0625 -12.203125 L 1.9375 -10.640625 L 0.34375 -10.640625 L 0.34375 -13.65625 Z M 11.703125 -13.65625 "/></g></g></g><g fill="#ffffff" fill-opacity="1"><g transform="translate(268.80329, 67.965729)"><g><path d="M 0.671875 -12.46875 L 0.671875 -13.65625 L 5.578125 -13.65625 L 5.578125 -12.46875 L 4.046875 -12.203125 L 4.046875 -7.484375 L 10.671875 -7.484375 L 10.671875 -12.203125 L 9.140625 -12.46875 L 9.140625 -13.65625 L 14.046875 -13.65625 L 14.046875 -12.46875 L 12.515625 -12.203125 L 12.515625 -1.4375 L 14.046875 -1.1875 L 14.046875 0 L 9.140625 0 L 9.140625 -1.1875 L 10.671875 -1.4375 L 10.671875 -6.03125 L 4.046875 -6.03125 L 4.046875 -1.4375 L 5.578125 -1.1875 L 5.578125 0 L 0.671875 0 L 0.671875 -1.1875 L 2.203125 -1.4375 L 2.203125 -12.203125 Z M 0.671875 -12.46875 "/></g></g></g><g fill="#ffffff" fill-opacity="1"><g transform="translate(283.552585, 67.965729)"><g><path d="M 6.65625 -13.65625 C 8.144531 -13.65625 9.285156 -13.320312 10.078125 -12.65625 C 10.878906 -12 11.28125 -11.066406 11.28125 -9.859375 C 11.28125 -9.191406 11.09375 -8.597656 10.71875 -8.078125 C 10.351562 -7.566406 9.828125 -7.164062 9.140625 -6.875 C 9.878906 -6.632812 10.414062 -6.238281 10.75 -5.6875 C 11.082031 -5.132812 11.25 -4.457031 11.25 -3.65625 L 11.25 -2.546875 C 11.25 -2.128906 11.300781 -1.820312 11.40625 -1.625 C 11.507812 -1.425781 11.679688 -1.304688 11.921875 -1.265625 L 12.375 -1.203125 L 12.375 0 L 11.390625 0 C 10.660156 0 10.144531 -0.25 9.84375 -0.75 C 9.539062 -1.25 9.390625 -1.859375 9.390625 -2.578125 L 9.390625 -3.625 C 9.390625 -4.375 9.171875 -4.972656 8.734375 -5.421875 C 8.304688 -5.867188 7.734375 -6.09375 7.015625 -6.09375 L 4.046875 -6.09375 L 4.046875 -1.4375 L 5.578125 -1.1875 L 5.578125 0 L 0.671875 0 L 0.671875 -1.1875 L 2.203125 -1.4375 L 2.203125 -12.203125 L 0.671875 -12.46875 L 0.671875 -13.65625 Z M 4.046875 -7.546875 L 6.46875 -7.546875 C 7.507812 -7.546875 8.265625 -7.742188 8.734375 -8.140625 C 9.203125 -8.535156 9.4375 -9.113281 9.4375 -9.875 C 9.4375 -10.59375 9.207031 -11.160156 8.75 -11.578125 C 8.300781 -11.992188 7.601562 -12.203125 6.65625 -12.203125 L 4.046875 -12.203125 Z M 4.046875 -7.546875 "/></g></g></g><g fill="#ffffff" fill-opacity="1"><g transform="translate(296.548466, 67.965729)"><g><path d="M 12.84375 -6.734375 C 12.84375 -4.742188 12.269531 -3.085938 11.125 -1.765625 C 9.976562 -0.453125 8.5 0.203125 6.6875 0.203125 C 4.925781 0.203125 3.492188 -0.453125 2.390625 -1.765625 C 1.285156 -3.085938 0.734375 -4.742188 0.734375 -6.734375 L 0.734375 -6.921875 C 0.734375 -8.910156 1.285156 -10.5625 2.390625 -11.875 C 3.492188 -13.195312 4.925781 -13.859375 6.6875 -13.859375 C 8.5 -13.859375 9.976562 -13.195312 11.125 -11.875 C 12.269531 -10.5625 12.84375 -8.910156 12.84375 -6.921875 Z M 10.984375 -6.9375 C 10.984375 -8.53125 10.601562 -9.828125 9.84375 -10.828125 C 9.082031 -11.835938 8.03125 -12.34375 6.6875 -12.34375 C 5.394531 -12.34375 4.390625 -11.835938 3.671875 -10.828125 C 2.953125 -9.816406 2.59375 -8.519531 2.59375 -6.9375 L 2.59375 -6.734375 C 2.59375 -5.128906 2.953125 -3.820312 3.671875 -2.8125 C 4.390625 -1.8125 5.394531 -1.3125 6.6875 -1.3125 C 8.050781 -1.3125 9.109375 -1.8125 9.859375 -2.8125 C 10.609375 -3.8125 10.984375 -5.117188 10.984375 -6.734375 Z M 10.984375 -6.9375 "/></g></g></g><g fill="#ffffff" fill-opacity="1"><g transform="translate(310.097564, 67.965729)"><g><path d="M 5.46875 -13.65625 L 5.46875 -12.46875 L 3.9375 -12.203125 L 3.9375 -4.40625 C 3.9375 -3.375 4.226562 -2.585938 4.8125 -2.046875 C 5.40625 -1.515625 6.1875 -1.25 7.15625 -1.25 C 8.164062 -1.25 8.976562 -1.515625 9.59375 -2.046875 C 10.21875 -2.578125 10.53125 -3.363281 10.53125 -4.40625 L 10.53125 -12.203125 L 9 -12.46875 L 9 -13.65625 L 13.90625 -13.65625 L 13.90625 -12.46875 L 12.375 -12.203125 L 12.375 -4.40625 C 12.375 -2.914062 11.890625 -1.773438 10.921875 -0.984375 C 9.960938 -0.191406 8.707031 0.203125 7.15625 0.203125 C 5.644531 0.203125 4.421875 -0.191406 3.484375 -0.984375 C 2.554688 -1.773438 2.09375 -2.914062 2.09375 -4.40625 L 2.09375 -12.203125 L 0.5625 -12.46875 L 0.5625 -13.65625 Z M 5.46875 -13.65625 "/></g></g></g><g fill="#ffffff" fill-opacity="1"><g transform="translate(324.546809, 67.965729)"><g><path d="M 11.546875 -1.546875 C 11.140625 -1.128906 10.546875 -0.734375 9.765625 -0.359375 C 8.984375 0.015625 7.96875 0.203125 6.71875 0.203125 C 4.894531 0.203125 3.40625 -0.4375 2.25 -1.71875 C 1.09375 -3.007812 0.515625 -4.675781 0.515625 -6.71875 L 0.515625 -6.9375 C 0.515625 -9 1.082031 -10.664062 2.21875 -11.9375 C 3.363281 -13.21875 4.882812 -13.859375 6.78125 -13.859375 C 7.800781 -13.859375 8.691406 -13.695312 9.453125 -13.375 C 10.222656 -13.0625 10.867188 -12.648438 11.390625 -12.140625 L 11.390625 -9.65625 L 10.09375 -9.65625 L 9.640625 -11.546875 C 9.335938 -11.796875 8.96875 -12 8.53125 -12.15625 C 8.09375 -12.320312 7.570312 -12.40625 6.96875 -12.40625 C 5.488281 -12.40625 4.347656 -11.898438 3.546875 -10.890625 C 2.753906 -9.878906 2.359375 -8.570312 2.359375 -6.96875 L 2.359375 -6.71875 C 2.359375 -5.082031 2.742188 -3.757812 3.515625 -2.75 C 4.296875 -1.75 5.363281 -1.25 6.71875 -1.25 C 7.457031 -1.25 8.066406 -1.328125 8.546875 -1.484375 C 9.023438 -1.640625 9.40625 -1.8125 9.6875 -2 L 9.6875 -5 L 7.453125 -5.09375 L 7.453125 -6.453125 L 11.546875 -6.453125 Z M 11.546875 -1.546875 "/></g></g></g><g fill="#ffffff" fill-opacity="1"><g transform="translate(337.552068, 67.965729)"><g><path d="M 0.671875 -12.46875 L 0.671875 -13.65625 L 5.578125 -13.65625 L 5.578125 -12.46875 L 4.046875 -12.203125 L 4.046875 -7.484375 L 10.671875 -7.484375 L 10.671875 -12.203125 L 9.140625 -12.46875 L 9.140625 -13.65625 L 14.046875 -13.65625 L 14.046875 -12.46875 L 12.515625 -12.203125 L 12.515625 -1.4375 L 14.046875 -1.1875 L 14.046875 0 L 9.140625 0 L 9.140625 -1.1875 L 10.671875 -1.4375 L 10.671875 -6.03125 L 4.046875 -6.03125 L 4.046875 -1.4375 L 5.578125 -1.1875 L 5.578125 0 L 0.671875 0 L 0.671875 -1.1875 L 2.203125 -1.4375 L 2.203125 -12.203125 Z M 0.671875 -12.46875 "/></g></g></g><g fill="#ffffff" fill-opacity="1"><g transform="translate(352.301362, 67.965729)"><g/></g></g><g fill="#ffffff" fill-opacity="1"><g transform="translate(357.07402, 67.965729)"><g><path d="M 0.65625 -12.46875 L 0.65625 -13.65625 L 5.5625 -13.65625 L 5.5625 -12.46875 L 4.03125 -12.203125 L 4.03125 -1.4375 L 5.5625 -1.1875 L 5.5625 0 L 0.65625 0 L 0.65625 -1.1875 L 2.1875 -1.4375 L 2.1875 -12.203125 Z M 0.65625 -12.46875 "/></g></g></g><g fill="#ffffff" fill-opacity="1"><g transform="translate(363.281288, 67.965729)"><g><path d="M 14.046875 -13.65625 L 14.046875 -12.46875 L 12.515625 -12.203125 L 12.515625 0 L 10.671875 0 L 4.09375 -10.546875 L 4.046875 -10.53125 L 4.046875 -1.4375 L 5.578125 -1.1875 L 5.578125 0 L 0.671875 0 L 0.671875 -1.1875 L 2.203125 -1.4375 L 2.203125 -12.203125 L 0.671875 -12.46875 L 0.671875 -13.65625 L 4.046875 -13.65625 L 10.609375 -3.125 L 10.671875 -3.140625 L 10.671875 -12.203125 L 9.140625 -12.46875 L 9.140625 -13.65625 Z M 14.046875 -13.65625 "/></g></g></g><g fill="#ffffff" fill-opacity="1"><g transform="translate(377.908688, 67.965729)"><g/></g></g><g fill="#ffffff" fill-opacity="1"><g transform="translate(382.681346, 67.965729)"><g><path d="M 11.703125 -13.65625 L 11.703125 -10.640625 L 10.125 -10.640625 L 9.984375 -12.203125 L 6.953125 -12.203125 L 6.953125 -1.4375 L 8.484375 -1.1875 L 8.484375 0 L 3.578125 0 L 3.578125 -1.1875 L 5.109375 -1.4375 L 5.109375 -12.203125 L 2.0625 -12.203125 L 1.9375 -10.640625 L 0.34375 -10.640625 L 0.34375 -13.65625 Z M 11.703125 -13.65625 "/></g></g></g><g fill="#ffffff" fill-opacity="1"><g transform="translate(394.720821, 67.965729)"><g><path d="M 0.671875 -12.46875 L 0.671875 -13.65625 L 5.578125 -13.65625 L 5.578125 -12.46875 L 4.046875 -12.203125 L 4.046875 -7.484375 L 10.671875 -7.484375 L 10.671875 -12.203125 L 9.140625 -12.46875 L 9.140625 -13.65625 L 14.046875 -13.65625 L 14.046875 -12.46875 L 12.515625 -12.203125 L 12.515625 -1.4375 L 14.046875 -1.1875 L 14.046875 0 L 9.140625 0 L 9.140625 -1.1875 L 10.671875 -1.4375 L 10.671875 -6.03125 L 4.046875 -6.03125 L 4.046875 -1.4375 L 5.578125 -1.1875 L 5.578125 0 L 0.671875 0 L 0.671875 -1.1875 L 2.203125 -1.4375 L 2.203125 -12.203125 Z M 0.671875 -12.46875 "/></g></g></g><g fill="#ffffff" fill-opacity="1"><g transform="translate(409.470115, 67.965729)"><g><path d="M 0.671875 0 L 0.671875 -1.1875 L 2.203125 -1.4375 L 2.203125 -12.203125 L 0.671875 -12.46875 L 0.671875 -13.65625 L 11.15625 -13.65625 L 11.15625 -10.375 L 9.578125 -10.375 L 9.421875 -12.203125 L 4.046875 -12.203125 L 4.046875 -7.78125 L 9.265625 -7.78125 L 9.265625 -6.328125 L 4.046875 -6.328125 L 4.046875 -1.4375 L 9.53125 -1.4375 L 9.6875 -3.28125 L 11.265625 -3.28125 L 11.265625 0 Z M 0.671875 0 "/></g></g></g><g fill="#ffffff" fill-opacity="1"><g transform="translate(421.715873, 67.965729)"><g/></g></g><g fill="#ffffff" fill-opacity="1"><g transform="translate(426.488531, 67.965729)"><g><path d="M 10.5625 -9.625 L 9.15625 -9.625 L 8.8125 -11.578125 C 8.53125 -11.816406 8.15625 -12.015625 7.6875 -12.171875 C 7.21875 -12.328125 6.671875 -12.40625 6.046875 -12.40625 C 5.066406 -12.40625 4.3125 -12.195312 3.78125 -11.78125 C 3.257812 -11.363281 3 -10.820312 3 -10.15625 C 3 -9.5625 3.265625 -9.066406 3.796875 -8.671875 C 4.335938 -8.273438 5.207031 -7.925781 6.40625 -7.625 C 7.84375 -7.257812 8.929688 -6.726562 9.671875 -6.03125 C 10.421875 -5.34375 10.796875 -4.488281 10.796875 -3.46875 C 10.796875 -2.363281 10.347656 -1.472656 9.453125 -0.796875 C 8.554688 -0.128906 7.382812 0.203125 5.9375 0.203125 C 4.882812 0.203125 3.945312 0.03125 3.125 -0.3125 C 2.3125 -0.65625 1.648438 -1.109375 1.140625 -1.671875 L 1.140625 -4.21875 L 2.53125 -4.21875 L 2.875 -2.25 C 3.238281 -1.957031 3.664062 -1.71875 4.15625 -1.53125 C 4.65625 -1.34375 5.25 -1.25 5.9375 -1.25 C 6.863281 -1.25 7.597656 -1.445312 8.140625 -1.84375 C 8.679688 -2.238281 8.953125 -2.769531 8.953125 -3.4375 C 8.953125 -4.0625 8.71875 -4.585938 8.25 -5.015625 C 7.78125 -5.441406 6.953125 -5.796875 5.765625 -6.078125 C 4.316406 -6.421875 3.1875 -6.925781 2.375 -7.59375 C 1.5625 -8.269531 1.15625 -9.113281 1.15625 -10.125 C 1.15625 -11.195312 1.609375 -12.085938 2.515625 -12.796875 C 3.421875 -13.503906 4.597656 -13.859375 6.046875 -13.859375 C 7.003906 -13.859375 7.875 -13.691406 8.65625 -13.359375 C 9.445312 -13.035156 10.082031 -12.640625 10.5625 -12.171875 Z M 10.5625 -9.625 "/></g></g></g><g fill="#ffffff" fill-opacity="1"><g transform="translate(438.181075, 67.965729)"><g><path d="M 5.46875 -13.65625 L 5.46875 -12.46875 L 3.9375 -12.203125 L 3.9375 -4.40625 C 3.9375 -3.375 4.226562 -2.585938 4.8125 -2.046875 C 5.40625 -1.515625 6.1875 -1.25 7.15625 -1.25 C 8.164062 -1.25 8.976562 -1.515625 9.59375 -2.046875 C 10.21875 -2.578125 10.53125 -3.363281 10.53125 -4.40625 L 10.53125 -12.203125 L 9 -12.46875 L 9 -13.65625 L 13.90625 -13.65625 L 13.90625 -12.46875 L 12.375 -12.203125 L 12.375 -4.40625 C 12.375 -2.914062 11.890625 -1.773438 10.921875 -0.984375 C 9.960938 -0.191406 8.707031 0.203125 7.15625 0.203125 C 5.644531 0.203125 4.421875 -0.191406 3.484375 -0.984375 C 2.554688 -1.773438 2.09375 -2.914062 2.09375 -4.40625 L 2.09375 -12.203125 L 0.5625 -12.46875 L 0.5625 -13.65625 Z M 5.46875 -13.65625 "/></g></g></g><g fill="#ffffff" fill-opacity="1"><g transform="translate(452.63032, 67.965729)"><g><path d="M 6.9375 -13.65625 C 8.394531 -13.65625 9.53125 -13.28125 10.34375 -12.53125 C 11.15625 -11.78125 11.5625 -10.796875 11.5625 -9.578125 C 11.5625 -8.335938 11.15625 -7.34375 10.34375 -6.59375 C 9.53125 -5.851562 8.394531 -5.484375 6.9375 -5.484375 L 4.046875 -5.484375 L 4.046875 -1.4375 L 5.578125 -1.1875 L 5.578125 0 L 0.671875 0 L 0.671875 -1.1875 L 2.203125 -1.4375 L 2.203125 -12.203125 L 0.671875 -12.46875 L 0.671875 -13.65625 Z M 4.046875 -6.921875 L 6.9375 -6.921875 C 7.863281 -6.921875 8.554688 -7.171875 9.015625 -7.671875 C 9.484375 -8.171875 9.71875 -8.796875 9.71875 -9.546875 C 9.71875 -10.304688 9.484375 -10.9375 9.015625 -11.4375 C 8.554688 -11.945312 7.863281 -12.203125 6.9375 -12.203125 L 4.046875 -12.203125 Z M 4.046875 -6.921875 "/></g></g></g><g fill="#ffffff" fill-opacity="1"><g transform="translate(464.829196, 67.965729)"><g><path d="M 6.9375 -13.65625 C 8.394531 -13.65625 9.53125 -13.28125 10.34375 -12.53125 C 11.15625 -11.78125 11.5625 -10.796875 11.5625 -9.578125 C 11.5625 -8.335938 11.15625 -7.34375 10.34375 -6.59375 C 9.53125 -5.851562 8.394531 -5.484375 6.9375 -5.484375 L 4.046875 -5.484375 L 4.046875 -1.4375 L 5.578125 -1.1875 L 5.578125 0 L 0.671875 0 L 0.671875 -1.1875 L 2.203125 -1.4375 L 2.203125 -12.203125 L 0.671875 -12.46875 L 0.671875 -13.65625 Z M 4.046875 -6.921875 L 6.9375 -6.921875 C 7.863281 -6.921875 8.554688 -7.171875 9.015625 -7.671875 C 9.484375 -8.171875 9.71875 -8.796875 9.71875 -9.546875 C 9.71875 -10.304688 9.484375 -10.9375 9.015625 -11.4375 C 8.554688 -11.945312 7.863281 -12.203125 6.9375 -12.203125 L 4.046875 -12.203125 Z M 4.046875 -6.921875 "/></g></g></g><g fill="#ffffff" fill-opacity="1"><g transform="translate(477.028073, 67.965729)"><g><path d="M 0.671875 0 L 0.671875 -1.1875 L 2.203125 -1.4375 L 2.203125 -12.203125 L 0.671875 -12.46875 L 0.671875 -13.65625 L 5.578125 -13.65625 L 5.578125 -12.46875 L 4.046875 -12.203125 L 4.046875 -1.4375 L 8.796875 -1.4375 L 8.9375 -3.015625 L 10.515625 -3.015625 L 10.515625 0 Z M 0.671875 0 "/></g></g></g><g fill="#ffffff" fill-opacity="1"><g transform="translate(488.270542, 67.965729)"><g><path d="M 5.203125 -12.46875 L 3.734375 -12.296875 L 6.59375 -6.71875 L 9.453125 -12.296875 L 8 -12.46875 L 8 -13.65625 L 12.6875 -13.65625 L 12.6875 -12.46875 L 11.53125 -12.296875 L 7.484375 -4.8125 L 7.484375 -1.4375 L 9.015625 -1.1875 L 9.015625 0 L 4.109375 0 L 4.109375 -1.1875 L 5.640625 -1.4375 L 5.640625 -4.953125 L 1.65625 -12.296875 L 0.515625 -12.46875 L 0.515625 -13.65625 L 5.203125 -13.65625 Z M 5.203125 -12.46875 "/></g></g></g><g fill="#ffffff" fill-opacity="1"><g transform="translate(501.547719, 67.965729)"><g/></g></g><g fill="#ffffff" fill-opacity="1"><g transform="translate(506.320377, 67.965729)"><g><path d="M 11.265625 -9.46875 L 9.953125 -9.46875 L 9.609375 -11.40625 C 9.304688 -11.695312 8.9375 -11.9375 8.5 -12.125 C 8.0625 -12.3125 7.539062 -12.40625 6.9375 -12.40625 C 5.519531 -12.40625 4.425781 -11.890625 3.65625 -10.859375 C 2.894531 -9.828125 2.515625 -8.519531 2.515625 -6.9375 L 2.515625 -6.734375 C 2.515625 -5.148438 2.882812 -3.835938 3.625 -2.796875 C 4.375 -1.765625 5.414062 -1.25 6.75 -1.25 C 7.363281 -1.25 7.925781 -1.34375 8.4375 -1.53125 C 8.945312 -1.726562 9.335938 -1.96875 9.609375 -2.25 L 9.953125 -4.1875 L 11.265625 -4.1875 L 11.265625 -1.75 C 10.867188 -1.25 10.273438 -0.796875 9.484375 -0.390625 C 8.703125 0.00390625 7.789062 0.203125 6.75 0.203125 C 4.96875 0.203125 3.507812 -0.453125 2.375 -1.765625 C 1.238281 -3.085938 0.671875 -4.742188 0.671875 -6.734375 L 0.671875 -6.921875 C 0.671875 -8.921875 1.226562 -10.578125 2.34375 -11.890625 C 3.46875 -13.203125 4.9375 -13.859375 6.75 -13.859375 C 7.789062 -13.859375 8.703125 -13.65625 9.484375 -13.25 C 10.273438 -12.851562 10.867188 -12.40625 11.265625 -11.90625 Z M 11.265625 -9.46875 "/></g></g></g><g fill="#ffffff" fill-opacity="1"><g transform="translate(518.706784, 67.965729)"><g><path d="M 0.671875 -12.46875 L 0.671875 -13.65625 L 5.578125 -13.65625 L 5.578125 -12.46875 L 4.046875 -12.203125 L 4.046875 -7.484375 L 10.671875 -7.484375 L 10.671875 -12.203125 L 9.140625 -12.46875 L 9.140625 -13.65625 L 14.046875 -13.65625 L 14.046875 -12.46875 L 12.515625 -12.203125 L 12.515625 -1.4375 L 14.046875 -1.1875 L 14.046875 0 L 9.140625 0 L 9.140625 -1.1875 L 10.671875 -1.4375 L 10.671875 -6.03125 L 4.046875 -6.03125 L 4.046875 -1.4375 L 5.578125 -1.1875 L 5.578125 0 L 0.671875 0 L 0.671875 -1.1875 L 2.203125 -1.4375 L 2.203125 -12.203125 Z M 0.671875 -12.46875 "/></g></g></g><g fill="#ffffff" fill-opacity="1"><g transform="translate(533.456078, 67.965729)"><g><path d="M 0.515625 -1.1875 L 1.53125 -1.328125 L 6.3125 -13.65625 L 7.890625 -13.65625 L 12.578125 -1.328125 L 13.59375 -1.1875 L 13.59375 0 L 9.671875 0 L 9.671875 -1.1875 L 10.703125 -1.359375 L 9.796875 -3.875 L 4.328125 -3.875 L 3.390625 -1.359375 L 4.421875 -1.1875 L 4.421875 0 L 0.515625 0 Z M 4.90625 -5.421875 L 9.234375 -5.421875 L 7.109375 -11.296875 L 7.0625 -11.296875 Z M 4.90625 -5.421875 "/></g></g></g><g fill="#ffffff" fill-opacity="1"><g transform="translate(547.520885, 67.965729)"><g><path d="M 0.65625 -12.46875 L 0.65625 -13.65625 L 5.5625 -13.65625 L 5.5625 -12.46875 L 4.03125 -12.203125 L 4.03125 -1.4375 L 5.5625 -1.1875 L 5.5625 0 L 0.65625 0 L 0.65625 -1.1875 L 2.1875 -1.4375 L 2.1875 -12.203125 Z M 0.65625 -12.46875 "/></g></g></g><g fill="#ffffff" fill-opacity="1"><g transform="translate(553.728153, 67.965729)"><g><path d="M 14.046875 -13.65625 L 14.046875 -12.46875 L 12.515625 -12.203125 L 12.515625 0 L 10.671875 0 L 4.09375 -10.546875 L 4.046875 -10.53125 L 4.046875 -1.4375 L 5.578125 -1.1875 L 5.578125 0 L 0.671875 0 L 0.671875 -1.1875 L 2.203125 -1.4375 L 2.203125 -12.203125 L 0.671875 -12.46875 L 0.671875 -13.65625 L 4.046875 -13.65625 L 10.609375 -3.125 L 10.671875 -3.140625 L 10.671875 -12.203125 L 9.140625 -12.46875 L 9.140625 -13.65625 Z M 14.046875 -13.65625 "/></g></g></g><g clip-path="url(#599d75aec1)"><path fill="#f7f7e6" d="M 0 86.398438 L 768.191406 86.398438 L 768.191406 96.164062 L 0 96.164062 Z M 0 86.398438 " fill-opacity="1" fill-rule="nonzero"/></g><path stroke-linecap="butt" transform="matrix(0.75, 0, 0, 0.75, 0.198189, 88.722177)" fill="none" stroke-linejoin="miter" d="M 0.00137318 0.500639 L 437.829521 0.500639 " stroke="#e84324" stroke-width="1" stroke-opacity="1" stroke-miterlimit="4"/><path stroke-linecap="butt" transform="matrix(0.75, 0, 0, 0.75, 0.198189, 90.914719)" fill="none" stroke-linejoin="miter" d="M 0.00137318 0.499125 L 437.829521 0.499125 " stroke="#e84324" stroke-width="1" stroke-opacity="1" stroke-miterlimit="4"/><path stroke-linecap="butt" transform="matrix(0.75, 0, 0, 0.75, 0.198189, 93.164719)" fill="none" stroke-linejoin="miter" d="M 0.00137318 0.499125 L 437.829521 0.499125 " stroke="#e84324" stroke-width="1" stroke-opacity="1" stroke-miterlimit="4"/><path stroke-linecap="butt" transform="matrix(0.75, 0, 0, 0.75, 439.483301, 88.70712)" fill="none" stroke-linejoin="miter" d="M 0.00143185 0.499882 L 438.287913 0.499882 " stroke="#e84324" stroke-width="1" stroke-opacity="1" stroke-miterlimit="4"/><path stroke-linecap="butt" transform="matrix(0.75, 0, 0, 0.75, 439.483301, 90.906516)" fill="none" stroke-linejoin="miter" d="M 0.00143185 0.499646 L 438.287913 0.499646 " stroke="#e84324" stroke-width="1" stroke-opacity="1" stroke-miterlimit="4"/><path stroke-linecap="butt" transform="matrix(0.75, 0, 0, 0.75, 439.483301, 93.163548)" fill="none" stroke-linejoin="miter" d="M 0.00143185 0.500687 L 438.287913 0.500687 " stroke="#e84324" stroke-width="1" stroke-opacity="1" stroke-miterlimit="4"/><g clip-path="url(#fc92a86016)"><g clip-path="url(#1c21d339d0)"><path fill="#38499e" d="M 360.167969 87.160156 L 368.523438 87.160156 L 368.523438 95.117188 L 360.167969 95.117188 Z M 360.167969 87.160156 " fill-opacity="1" fill-rule="nonzero"/></g></g><g clip-path="url(#bcef8517a3)"><g clip-path="url(#c0a75a0f36)"><path fill="#38499e" d="M 399.488281 87.445312 L 407.847656 87.445312 L 407.847656 95.402344 L 399.488281 95.402344 Z M 399.488281 87.445312 " fill-opacity="1" fill-rule="nonzero"/></g></g><g clip-path="url(#ab61a325f9)"><g clip-path="url(#769773f1d1)"><path fill="#38499e" d="M 379.761719 87.445312 L 388.121094 87.445312 L 388.121094 95.402344 L 379.761719 95.402344 Z M 379.761719 87.445312 " fill-opacity="1" fill-rule="nonzero"/></g></g><g clip-path="url(#32c06a1d71)"><g clip-path="url(#fe5517213f)"><path fill="#38499e" d="M 419.082031 87.167969 L 427.441406 87.167969 L 427.441406 95.125 L 419.082031 95.125 Z M 419.082031 87.167969 " fill-opacity="1" fill-rule="nonzero"/></g></g><g clip-path="url(#c919165b4c)"><g clip-path="url(#4025edbb8e)"><path fill="#38499e" d="M 340.570312 87.160156 L 348.929688 87.160156 L 348.929688 95.117188 L 340.570312 95.117188 Z M 340.570312 87.160156 " fill-opacity="1" fill-rule="nonzero"/></g></g><g clip-path="url(#8f5e96ded8)"><path fill="#f7f7e6" d="M -0.199219 0.0390625 L 767.992188 0.0390625 L 767.992188 9.800781 L -0.199219 9.800781 Z M -0.199219 0.0390625 " fill-opacity="1" fill-rule="nonzero"/></g><path stroke-linecap="butt" transform="matrix(0.75, 0, 0, 0.75, 0.000004, 2.359613)" fill="none" stroke-linejoin="miter" d="M -0.00000533333 0.499682 L 437.828142 0.499682 " stroke="#e84324" stroke-width="1" stroke-opacity="1" stroke-miterlimit="4"/><path stroke-linecap="butt" transform="matrix(0.75, 0, 0, 0.75, 0.000004, 4.552154)" fill="none" stroke-linejoin="miter" d="M -0.00000533333 0.49817 L 437.828142 0.49817 " stroke="#e84324" stroke-width="1" stroke-opacity="1" stroke-miterlimit="4"/><path stroke-linecap="butt" transform="matrix(0.75, 0, 0, 0.75, 0.000004, 6.802153)" fill="none" stroke-linejoin="miter" d="M -0.00000533333 0.49817 L 437.828142 0.49817 " stroke="#e84324" stroke-width="1" stroke-opacity="1" stroke-miterlimit="4"/><path stroke-linecap="butt" transform="matrix(0.75, 0, 0, 0.75, 439.285157, 2.344553)" fill="none" stroke-linejoin="miter" d="M -0.00000116075 0.49893 L 438.28648 0.49893 " stroke="#e84324" stroke-width="1" stroke-opacity="1" stroke-miterlimit="4"/><path stroke-linecap="butt" transform="matrix(0.75, 0, 0, 0.75, 439.285157, 4.543947)" fill="none" stroke-linejoin="miter" d="M -0.00000116075 0.498695 L 438.28648 0.498695 " stroke="#e84324" stroke-width="1" stroke-opacity="1" stroke-miterlimit="4"/><path stroke-linecap="butt" transform="matrix(0.75, 0, 0, 0.75, 439.285157, 6.800981)" fill="none" stroke-linejoin="miter" d="M -0.00000116075 0.499734 L 438.28648 0.499734 " stroke="#e84324" stroke-width="1" stroke-opacity="1" stroke-miterlimit="4"/><g clip-path="url(#51fd7fbdfa)"><g clip-path="url(#070ea0d0c1)"><path fill="#38499e" d="M 359.96875 0.796875 L 368.328125 0.796875 L 368.328125 8.753906 L 359.96875 8.753906 Z M 359.96875 0.796875 " fill-opacity="1" fill-rule="nonzero"/></g></g><g clip-path="url(#4fb19f7477)"><g clip-path="url(#097a6fca12)"><path fill="#38499e" d="M 399.289062 1.085938 L 407.648438 1.085938 L 407.648438 9.039062 L 399.289062 9.039062 Z M 399.289062 1.085938 " fill-opacity="1" fill-rule="nonzero"/></g></g><g clip-path="url(#8f05fc1be5)"><g clip-path="url(#540488ab4b)"><path fill="#38499e" d="M 379.5625 1.085938 L 387.921875 1.085938 L 387.921875 9.039062 L 379.5625 9.039062 Z M 379.5625 1.085938 " fill-opacity="1" fill-rule="nonzero"/></g></g><g clip-path="url(#b6fd56ac37)"><g clip-path="url(#ff6878bfe3)"><path fill="#38499e" d="M 418.886719 0.808594 L 427.242188 0.808594 L 427.242188 8.761719 L 418.886719 8.761719 Z M 418.886719 0.808594 " fill-opacity="1" fill-rule="nonzero"/></g></g><g clip-path="url(#ca6460d11e)"><g clip-path="url(#be8d7d7620)"><path fill="#38499e" d="M 340.371094 0.796875 L 348.730469 0.796875 L 348.730469 8.753906 L 340.371094 8.753906 Z M 340.371094 0.796875 " fill-opacity="1" fill-rule="nonzero"/></g></g></svg>