<svg xmlns="http://www.w3.org/2000/svg" xmlns:xlink="http://www.w3.org/1999/xlink" width="1025" zoomAndPan="magnify" viewBox="0 0 768.75 10.5" height="14" preserveAspectRatio="xMidYMid meet" version="1.0"><defs><clipPath id="184ab0240b"><path d="M 17.351562 0 L 751.160156 0 L 751.160156 10.023438 L 17.351562 10.023438 Z M 17.351562 0 " clip-rule="nonzero"/></clipPath><clipPath id="dac37e08b7"><path d="M 17.351562 0 L 750.632812 0 L 750.632812 9.320312 L 17.351562 9.320312 Z M 17.351562 0 " clip-rule="nonzero"/></clipPath><clipPath id="3bd08f911d"><path d="M 384.402344 1.425781 L 391.371094 1.425781 L 391.371094 8.097656 L 384.402344 8.097656 Z M 384.402344 1.425781 " clip-rule="nonzero"/></clipPath><clipPath id="deb63e397c"><path d="M 388.113281 1.605469 L 388.589844 3.074219 C 388.726562 3.503906 389.125 3.789062 389.574219 3.789062 L 391.113281 3.789062 C 391.21875 3.789062 391.3125 3.859375 391.34375 3.960938 C 391.378906 4.0625 391.34375 4.171875 391.257812 4.234375 L 390.011719 5.140625 C 389.648438 5.40625 389.496094 5.871094 389.632812 6.296875 L 390.109375 7.769531 C 390.144531 7.871094 390.109375 7.980469 390.023438 8.042969 C 389.9375 8.105469 389.820312 8.101562 389.734375 8.042969 L 388.488281 7.132812 C 388.125 6.871094 387.636719 6.871094 387.273438 7.132812 L 386.027344 8.042969 C 385.941406 8.101562 385.824219 8.105469 385.738281 8.042969 C 385.652344 7.980469 385.617188 7.871094 385.652344 7.769531 L 386.128906 6.296875 C 386.265625 5.871094 386.113281 5.40625 385.75 5.140625 L 384.503906 4.234375 C 384.417969 4.171875 384.382812 4.0625 384.417969 3.960938 C 384.449219 3.859375 384.542969 3.789062 384.648438 3.789062 L 386.1875 3.789062 C 386.636719 3.789062 387.035156 3.503906 387.171875 3.074219 L 387.648438 1.605469 C 387.683594 1.503906 387.773438 1.4375 387.882812 1.4375 C 387.988281 1.4375 388.082031 1.503906 388.113281 1.605469 Z M 388.113281 1.605469 " clip-rule="nonzero"/></clipPath><clipPath id="e379ac3eeb"><path d="M 421.933594 1.699219 L 428.90625 1.699219 L 428.90625 8.371094 L 421.933594 8.371094 Z M 421.933594 1.699219 " clip-rule="nonzero"/></clipPath><clipPath id="ddd1774905"><path d="M 425.644531 1.878906 L 426.121094 3.347656 C 426.261719 3.773438 426.660156 4.0625 427.105469 4.0625 L 428.644531 4.0625 C 428.75 4.0625 428.847656 4.132812 428.878906 4.234375 C 428.910156 4.332031 428.875 4.445312 428.789062 4.507812 L 427.542969 5.414062 C 427.179688 5.675781 427.03125 6.144531 427.167969 6.570312 L 427.644531 8.042969 C 427.675781 8.140625 427.640625 8.253906 427.554688 8.3125 C 427.46875 8.375 427.355469 8.375 427.269531 8.3125 L 426.023438 7.40625 C 425.660156 7.144531 425.167969 7.144531 424.808594 7.40625 L 423.558594 8.3125 C 423.476562 8.375 423.359375 8.375 423.273438 8.3125 C 423.1875 8.253906 423.152344 8.140625 423.183594 8.042969 L 423.660156 6.570312 C 423.800781 6.144531 423.648438 5.675781 423.285156 5.414062 L 422.039062 4.507812 C 421.953125 4.445312 421.917969 4.332031 421.949219 4.234375 C 421.984375 4.132812 422.078125 4.0625 422.183594 4.0625 L 423.722656 4.0625 C 424.171875 4.0625 424.566406 3.773438 424.707031 3.347656 L 425.183594 1.878906 C 425.214844 1.777344 425.308594 1.710938 425.414062 1.710938 C 425.519531 1.710938 425.613281 1.777344 425.644531 1.878906 Z M 425.644531 1.878906 " clip-rule="nonzero"/></clipPath><clipPath id="af07af47b5"><path d="M 403.105469 1.699219 L 410.078125 1.699219 L 410.078125 8.371094 L 403.105469 8.371094 Z M 403.105469 1.699219 " clip-rule="nonzero"/></clipPath><clipPath id="b6e8f2914c"><path d="M 406.816406 1.878906 L 407.292969 3.347656 C 407.433594 3.773438 407.832031 4.0625 408.277344 4.0625 L 409.816406 4.0625 C 409.921875 4.0625 410.019531 4.132812 410.050781 4.234375 C 410.082031 4.332031 410.046875 4.445312 409.960938 4.507812 L 408.714844 5.414062 C 408.351562 5.675781 408.203125 6.144531 408.339844 6.570312 L 408.816406 8.042969 C 408.847656 8.140625 408.8125 8.253906 408.726562 8.3125 C 408.640625 8.375 408.527344 8.375 408.441406 8.3125 L 407.195312 7.40625 C 406.832031 7.144531 406.339844 7.144531 405.980469 7.40625 L 404.730469 8.3125 C 404.648438 8.375 404.53125 8.375 404.445312 8.3125 C 404.359375 8.253906 404.324219 8.140625 404.355469 8.042969 L 404.832031 6.570312 C 404.972656 6.144531 404.820312 5.675781 404.457031 5.414062 L 403.210938 4.507812 C 403.125 4.445312 403.089844 4.332031 403.121094 4.234375 C 403.15625 4.132812 403.25 4.0625 403.355469 4.0625 L 404.894531 4.0625 C 405.34375 4.0625 405.738281 3.773438 405.878906 3.347656 L 406.355469 1.878906 C 406.386719 1.777344 406.480469 1.710938 406.585938 1.710938 C 406.691406 1.710938 406.785156 1.777344 406.816406 1.878906 Z M 406.816406 1.878906 " clip-rule="nonzero"/></clipPath><clipPath id="6c2cee0e65"><path d="M 17.351562 2 L 355 2 L 355 3 L 17.351562 3 Z M 17.351562 2 " clip-rule="nonzero"/></clipPath><clipPath id="007e62a60c"><path d="M 17.351562 4 L 355 4 L 355 6 L 17.351562 6 Z M 17.351562 4 " clip-rule="nonzero"/></clipPath><clipPath id="2225aa6a26"><path d="M 17.351562 6 L 355 6 L 355 8 L 17.351562 8 Z M 17.351562 6 " clip-rule="nonzero"/></clipPath><clipPath id="8f8bb89c72"><path d="M 440.640625 1.433594 L 447.609375 1.433594 L 447.609375 8.105469 L 440.640625 8.105469 Z M 440.640625 1.433594 " clip-rule="nonzero"/></clipPath><clipPath id="c672553643"><path d="M 444.351562 1.613281 L 444.828125 3.082031 C 444.964844 3.511719 445.363281 3.796875 445.8125 3.796875 L 447.351562 3.796875 C 447.457031 3.796875 447.550781 3.867188 447.582031 3.96875 C 447.617188 4.066406 447.582031 4.179688 447.496094 4.242188 L 446.25 5.148438 C 445.886719 5.414062 445.734375 5.878906 445.871094 6.304688 L 446.347656 7.777344 C 446.382812 7.878906 446.347656 7.988281 446.261719 8.050781 C 446.175781 8.113281 446.058594 8.109375 445.972656 8.050781 L 444.726562 7.140625 C 444.363281 6.878906 443.875 6.878906 443.511719 7.140625 L 442.265625 8.050781 C 442.179688 8.109375 442.0625 8.113281 441.976562 8.050781 C 441.894531 7.988281 441.855469 7.878906 441.890625 7.777344 L 442.367188 6.304688 C 442.503906 5.878906 442.351562 5.414062 441.992188 5.148438 L 440.742188 4.242188 C 440.660156 4.179688 440.621094 4.066406 440.65625 3.96875 C 440.6875 3.867188 440.78125 3.796875 440.886719 3.796875 L 442.425781 3.796875 C 442.875 3.796875 443.273438 3.511719 443.410156 3.082031 L 443.886719 1.613281 C 443.921875 1.511719 444.015625 1.445312 444.121094 1.445312 C 444.226562 1.445312 444.320312 1.511719 444.351562 1.613281 Z M 444.351562 1.613281 " clip-rule="nonzero"/></clipPath><clipPath id="ff2096436e"><path d="M 365.695312 1.425781 L 372.667969 1.425781 L 372.667969 8.097656 L 365.695312 8.097656 Z M 365.695312 1.425781 " clip-rule="nonzero"/></clipPath><clipPath id="0950adfad0"><path d="M 369.40625 1.605469 L 369.882812 3.074219 C 370.023438 3.503906 370.417969 3.789062 370.867188 3.789062 L 372.40625 3.789062 C 372.511719 3.789062 372.605469 3.859375 372.640625 3.960938 C 372.671875 4.0625 372.636719 4.171875 372.550781 4.234375 L 371.304688 5.140625 C 370.941406 5.40625 370.789062 5.871094 370.929688 6.296875 L 371.40625 7.769531 C 371.4375 7.871094 371.402344 7.980469 371.316406 8.042969 C 371.230469 8.105469 371.117188 8.101562 371.03125 8.042969 L 369.785156 7.132812 C 369.421875 6.871094 368.929688 6.871094 368.566406 7.132812 L 367.320312 8.042969 C 367.234375 8.101562 367.121094 8.105469 367.035156 8.042969 C 366.949219 7.980469 366.914062 7.871094 366.945312 7.769531 L 367.421875 6.296875 C 367.5625 5.871094 367.410156 5.40625 367.046875 5.140625 L 365.800781 4.234375 C 365.714844 4.171875 365.679688 4.0625 365.710938 3.960938 C 365.746094 3.859375 365.839844 3.789062 365.945312 3.789062 L 367.484375 3.789062 C 367.933594 3.789062 368.328125 3.503906 368.46875 3.074219 L 368.945312 1.605469 C 368.976562 1.503906 369.070312 1.4375 369.175781 1.4375 C 369.28125 1.4375 369.375 1.503906 369.40625 1.605469 Z M 369.40625 1.605469 " clip-rule="nonzero"/></clipPath></defs><g clip-path="url(#184ab0240b)"><path fill="#ffffff" d="M 17.351562 0 L 751.160156 0 L 751.160156 10.023438 L 17.351562 10.023438 Z M 17.351562 0 " fill-opacity="1" fill-rule="nonzero"/></g><g clip-path="url(#dac37e08b7)"><path fill="#f7f7e6" d="M 17.351562 0 L 750.625 0 L 750.625 9.320312 L 17.351562 9.320312 Z M 17.351562 0 " fill-opacity="1" fill-rule="nonzero"/></g><g clip-path="url(#3bd08f911d)"><g clip-path="url(#deb63e397c)"><path fill="#38499e" d="M 383.898438 0.890625 L 391.875 0.890625 L 391.875 8.484375 L 383.898438 8.484375 Z M 383.898438 0.890625 " fill-opacity="1" fill-rule="nonzero"/></g></g><g clip-path="url(#e379ac3eeb)"><g clip-path="url(#ddd1774905)"><path fill="#38499e" d="M 421.429688 1.164062 L 429.410156 1.164062 L 429.410156 8.757812 L 421.429688 8.757812 Z M 421.429688 1.164062 " fill-opacity="1" fill-rule="nonzero"/></g></g><g clip-path="url(#af07af47b5)"><g clip-path="url(#b6e8f2914c)"><path fill="#38499e" d="M 402.601562 1.164062 L 410.582031 1.164062 L 410.582031 8.757812 L 402.601562 8.757812 Z M 402.601562 1.164062 " fill-opacity="1" fill-rule="nonzero"/></g></g><g clip-path="url(#6c2cee0e65)"><path stroke-linecap="butt" transform="matrix(0.715909, 0, 0, 0.715909, 17.541467, 2.216628)" fill="none" stroke-linejoin="miter" d="M 0.00209816 0.499492 L 470.606803 0.499492 " stroke="#e84324" stroke-width="1" stroke-opacity="1" stroke-miterlimit="4"/></g><g clip-path="url(#007e62a60c)"><path stroke-linecap="butt" transform="matrix(0.715909, 0, 0, 0.715909, 17.541467, 4.309507)" fill="none" stroke-linejoin="miter" d="M 0.00209816 0.500709 L 470.606803 0.500709 " stroke="#e84324" stroke-width="1" stroke-opacity="1" stroke-miterlimit="4"/></g><g clip-path="url(#2225aa6a26)"><path stroke-linecap="butt" transform="matrix(0.715909, 0, 0, 0.715909, 17.541467, 6.457233)" fill="none" stroke-linejoin="miter" d="M 0.00209816 0.501702 L 470.606803 0.501702 " stroke="#e84324" stroke-width="1" stroke-opacity="1" stroke-miterlimit="4"/></g><path stroke-linecap="butt" transform="matrix(0.715909, 0, 0, 0.715909, 458.841497, 2.202252)" fill="none" stroke-linejoin="miter" d="M -0.00230976 0.497748 L 407.581556 0.497748 " stroke="#e84324" stroke-width="1" stroke-opacity="1" stroke-miterlimit="4"/><path stroke-linecap="butt" transform="matrix(0.715909, 0, 0, 0.715909, 458.841497, 4.301674)" fill="none" stroke-linejoin="miter" d="M -0.00230976 0.500738 L 407.581556 0.500738 " stroke="#e84324" stroke-width="1" stroke-opacity="1" stroke-miterlimit="4"/><path stroke-linecap="butt" transform="matrix(0.715909, 0, 0, 0.715909, 458.841497, 6.456114)" fill="none" stroke-linejoin="miter" d="M -0.00230976 0.497809 L 407.581556 0.497809 " stroke="#e84324" stroke-width="1" stroke-opacity="1" stroke-miterlimit="4"/><g clip-path="url(#8f8bb89c72)"><g clip-path="url(#c672553643)"><path fill="#38499e" d="M 440.136719 0.898438 L 448.113281 0.898438 L 448.113281 8.492188 L 440.136719 8.492188 Z M 440.136719 0.898438 " fill-opacity="1" fill-rule="nonzero"/></g></g><g clip-path="url(#ff2096436e)"><g clip-path="url(#0950adfad0)"><path fill="#38499e" d="M 365.191406 0.890625 L 373.171875 0.890625 L 373.171875 8.484375 L 365.191406 8.484375 Z M 365.191406 0.890625 " fill-opacity="1" fill-rule="nonzero"/></g></g></svg>