<svg xmlns="http://www.w3.org/2000/svg" xmlns:xlink="http://www.w3.org/1999/xlink" width="1024" zoomAndPan="magnify" viewBox="0 0 768 48" height="64" preserveAspectRatio="xMidYMid meet" version="1.0"><defs><filter x="0%" y="0%" width="100%" height="100%" id="caf436727e"><feColorMatrix values="0 0 0 0 1 0 0 0 0 1 0 0 0 0 1 0 0 0 1 0" color-interpolation-filters="sRGB"/></filter><filter x="0%" y="0%" width="100%" height="100%" id="788e727664"><feColorMatrix values="0 0 0 0 1 0 0 0 0 1 0 0 0 0 1 0 0 0 -1 1" color-interpolation-filters="sRGB"/></filter><filter x="0%" y="0%" width="100%" height="100%" id="e59a46a53f"><feImage x="0" y="0" result="source" width="1105.92" xlink:href="#7277c5eedf" height="69.120001"/><feImage x="0" y="0" result="destination" width="1105.92" xlink:href="#6a46488c54" height="69.120001"/><feBlend in2="destination" mode="multiply" color-interpolation-filters="sRGB" in="source"/></filter><filter x="0%" y="0%" width="100%" height="100%" id="4762578d0b"><feImage x="0" y="0" result="source" width="1105.92" xlink:href="#a1fb28966c" height="69.120001"/><feImage x="0" y="0" result="destination" width="1105.92" xlink:href="#3386b3f50e" height="69.120001"/><feComposite color-interpolation-filters="sRGB" in="source" k1="0" k2="1" k3="1" k4="0" in2="destination" operator="arithmetic"/></filter><clipPath id="6a2dfb932f"><path d="M 7.835938 0 L 760.164062 0 L 760.164062 47.019531 L 7.835938 47.019531 Z M 7.835938 0 " clip-rule="nonzero"/></clipPath><clipPath id="e2b01ba699"><path d="M 349.1875 4.703125 L 418.980469 4.703125 L 418.980469 47.019531 L 349.1875 47.019531 Z M 349.1875 4.703125 " clip-rule="nonzero"/></clipPath><clipPath id="e54cfa2d7f"><path d="M 0.203125 0.703125 L 69.980469 0.703125 L 69.980469 41 L 0.203125 41 Z M 0.203125 0.703125 " clip-rule="nonzero"/></clipPath><clipPath id="dba7561e3f"><path d="M 35 20 L 69.980469 20 L 69.980469 43.019531 L 35 43.019531 Z M 35 20 " clip-rule="nonzero"/></clipPath><clipPath id="5d6ab03bd9"><path d="M 0.203125 20 L 36 20 L 36 43.019531 L 0.203125 43.019531 Z M 0.203125 20 " clip-rule="nonzero"/></clipPath><mask id="52482e48dc"><g filter="url(#caf436727e)"><rect x="-517.96" width="1105.92" fill="#000000" y="-14.56" height="69.120001" fill-opacity="0.1"/></g></mask><clipPath id="5f313427d9"><path d="M 0.417969 0.046875 L 24.632812 0.046875 L 24.632812 13.917969 L 0.417969 13.917969 Z M 0.417969 0.046875 " clip-rule="nonzero"/></clipPath><clipPath id="036c3077c0"><rect x="0" width="25" y="0" height="14"/></clipPath><mask id="81762085a4"><g><g transform="translate(517.96, 14.56)"><rect x="-517.96" width="1105.92" fill="#000000" height="69.120001" y="-14.56" fill-opacity="0"/><rect x="-517.96" width="1105.92" fill="#ffffff" height="69.120001" y="-14.56" fill-opacity="1"/></g></g></mask><mask id="6d57e5ac56"><g filter="url(#788e727664)"><g transform="translate(517.96, 14.56)"><rect x="-517.96" width="1105.92" fill="#000000" height="69.120001" y="-14.56" fill-opacity="0"/><rect x="-517.96" width="1105.92" fill="#ffffff" height="69.120001" y="-14.56" fill-opacity="1"/></g></g></mask><mask id="d6cccefc99"><g transform="translate(517.96, 14.56)"><g mask="url(#52482e48dc)"><rect x="-517.96" width="1105.92" fill="#ffffff" y="-14.56" height="69.120001" fill-opacity="1"/></g></g></mask><g id="7277c5eedf" mask="url(#d6cccefc99)"><g transform="translate(517.96, 14.56)"><g transform="matrix(1, 0, 0, 1, 28, 11)"><g clip-path="url(#036c3077c0)"><g clip-path="url(#5f313427d9)"><path fill="#000000" d="M 12.578125 13.8125 L 0.800781 7.019531 L 12.496094 0.222656 L 24.355469 7.019531 Z M 12.578125 13.8125 " fill-opacity="1" fill-rule="nonzero"/></g></g></g></g></g><g id="6a46488c54" transform="translate(517.96, 14.56)"><g clip-path="url(#e54cfa2d7f)"><path fill="#9fbbe2" d="M 35.082031 40.921875 L 0.234375 20.808594 L 34.84375 0.703125 L 69.933594 20.808594 Z M 35.082031 40.921875 " fill-opacity="1" fill-rule="nonzero"/></g><g clip-path="url(#dba7561e3f)"><path fill="#38499e" d="M 69.933594 100.621094 L 35.082031 100.621094 L 35.082031 40.921875 L 69.933594 20.808594 Z M 69.933594 100.621094 " fill-opacity="1" fill-rule="nonzero"/></g><g clip-path="url(#5d6ab03bd9)"><path fill="#f7f7e6" d="M 0.234375 100.621094 L 35.082031 100.621094 L 35.082031 40.921875 L 0.234375 20.808594 Z M 0.234375 100.621094 " fill-opacity="1" fill-rule="nonzero"/></g><path fill="#38499e" d="M 27.300781 14.683594 L 25.113281 15.953125 L 42.859375 26.121094 L 45.054688 24.855469 Z M 27.300781 14.683594 " fill-opacity="1" fill-rule="nonzero"/></g><g id="a1fb28966c" mask="url(#81762085a4)" filter="url(#e59a46a53f)"><rect x="0" width="1105.92" fill="#000000" y="0" height="69.120001" fill-opacity="1"/></g><g id="3386b3f50e" mask="url(#6d57e5ac56)"><g><g transform="translate(517.96, 14.56)"><g clip-path="url(#e54cfa2d7f)"><path fill="#9fbbe2" d="M 35.082031 40.921875 L 0.234375 20.808594 L 34.84375 0.703125 L 69.933594 20.808594 Z M 35.082031 40.921875 " fill-opacity="1" fill-rule="nonzero"/></g><g clip-path="url(#dba7561e3f)"><path fill="#38499e" d="M 69.933594 100.621094 L 35.082031 100.621094 L 35.082031 40.921875 L 69.933594 20.808594 Z M 69.933594 100.621094 " fill-opacity="1" fill-rule="nonzero"/></g><g clip-path="url(#5d6ab03bd9)"><path fill="#f7f7e6" d="M 0.234375 100.621094 L 35.082031 100.621094 L 35.082031 40.921875 L 0.234375 20.808594 Z M 0.234375 100.621094 " fill-opacity="1" fill-rule="nonzero"/></g><path fill="#38499e" d="M 27.300781 14.683594 L 25.113281 15.953125 L 42.859375 26.121094 L 45.054688 24.855469 Z M 27.300781 14.683594 " fill-opacity="1" fill-rule="nonzero"/></g></g></g><clipPath id="b2a3812b21"><rect x="0" width="70" y="0" height="44"/></clipPath><clipPath id="6536ab0918"><path d="M 328.949219 4.703125 L 337.765625 4.703125 L 337.765625 13 L 328.949219 13 Z M 328.949219 4.703125 " clip-rule="nonzero"/></clipPath><clipPath id="49a3ef407f"><path d="M 328.949219 19 L 337.765625 19 L 337.765625 28 L 328.949219 28 Z M 328.949219 19 " clip-rule="nonzero"/></clipPath><clipPath id="e97ee1c070"><path d="M 328.949219 34 L 337.765625 34 L 337.765625 42.171875 L 328.949219 42.171875 Z M 328.949219 34 " clip-rule="nonzero"/></clipPath><clipPath id="02775bbc54"><path d="M 146.738281 19 L 188.617188 19 L 188.617188 42.171875 L 146.738281 42.171875 Z M 146.738281 19 " clip-rule="nonzero"/></clipPath><clipPath id="78ede39886"><path d="M 146.738281 4.703125 L 183 4.703125 L 183 19 L 146.738281 19 Z M 146.738281 4.703125 " clip-rule="nonzero"/></clipPath><clipPath id="9269dee45c"><path d="M 600 4.703125 L 644.765625 4.703125 L 644.765625 42.171875 L 600 42.171875 Z M 600 4.703125 " clip-rule="nonzero"/></clipPath><clipPath id="e10f55c91e"><path d="M 430.570312 4.703125 L 439.386719 4.703125 L 439.386719 13 L 430.570312 13 Z M 430.570312 4.703125 " clip-rule="nonzero"/></clipPath><clipPath id="7b349b0917"><path d="M 430.570312 19 L 439.386719 19 L 439.386719 28 L 430.570312 28 Z M 430.570312 19 " clip-rule="nonzero"/></clipPath><clipPath id="6d86ddddaf"><path d="M 430.570312 34 L 439.386719 34 L 439.386719 42.171875 L 430.570312 42.171875 Z M 430.570312 34 " clip-rule="nonzero"/></clipPath></defs><g clip-path="url(#6a2dfb932f)"><path fill="#ffffff" d="M 7.835938 0 L 760.164062 0 L 760.164062 47.019531 L 7.835938 47.019531 Z M 7.835938 0 " fill-opacity="1" fill-rule="nonzero"/><path fill="#e84324" d="M 7.835938 0 L 760.164062 0 L 760.164062 47.019531 L 7.835938 47.019531 Z M 7.835938 0 " fill-opacity="1" fill-rule="nonzero"/></g><g clip-path="url(#e2b01ba699)"><g transform="matrix(1, 0, 0, 1, 349, 4)"><g clip-path="url(#b2a3812b21)"><g transform="translate(-517.96, -14.56)" filter="url(#4762578d0b)"><rect x="0" width="1105.92" fill="#000000" height="69.120001" y="0" fill-opacity="1"/></g><path fill="#f7f7e6" d="M 28.742188 18.03125 L 40.578125 24.8125 L 40.578125 11.25 L 28.742188 4.417969 Z M 28.742188 18.03125 " fill-opacity="1" fill-rule="nonzero"/><path fill="#ed1c24" d="M 30.4375 13 C 30.4375 15.289062 32.066406 18.074219 34.050781 19.230469 C 36.039062 20.382812 37.664062 19.460938 37.664062 17.171875 C 37.664062 14.882812 36.050781 12.09375 34.050781 10.945312 C 32.054688 9.796875 30.4375 10.710938 30.4375 13 Z M 32.066406 14.230469 L 32.691406 13.871094 L 33.492188 15.246094 L 35.398438 14.160156 L 36.027344 15.238281 L 33.808594 16.507812 C 33.699219 16.558594 33.59375 16.550781 33.496094 16.480469 C 33.363281 16.394531 33.257812 16.285156 33.179688 16.144531 Z M 32.066406 14.230469 " fill-opacity="1" fill-rule="nonzero"/></g></g></g><g clip-path="url(#6536ab0918)"><path fill="#f7f7e6" d="M 333.5625 4.824219 L 334.742188 7.117188 C 334.777344 7.183594 334.835938 7.222656 334.914062 7.234375 L 337.558594 7.601562 C 337.652344 7.613281 337.710938 7.664062 337.742188 7.75 C 337.773438 7.839844 337.753906 7.917969 337.683594 7.980469 L 335.769531 9.757812 C 335.714844 9.8125 335.691406 9.875 335.707031 9.949219 L 336.15625 12.46875 C 336.171875 12.558594 336.144531 12.628906 336.066406 12.683594 C 335.992188 12.734375 335.910156 12.742188 335.828125 12.699219 L 333.464844 11.511719 C 333.394531 11.476562 333.324219 11.476562 333.253906 11.511719 L 330.890625 12.699219 C 330.804688 12.742188 330.726562 12.738281 330.648438 12.683594 C 330.574219 12.628906 330.542969 12.558594 330.558594 12.46875 L 331.011719 9.949219 C 331.023438 9.875 331.003906 9.808594 330.945312 9.757812 L 329.03125 7.980469 C 328.964844 7.917969 328.945312 7.84375 328.976562 7.757812 C 329.003906 7.671875 329.066406 7.621094 329.160156 7.609375 L 331.800781 7.242188 C 331.878906 7.230469 331.9375 7.191406 331.972656 7.121094 L 333.152344 4.824219 C 333.195312 4.742188 333.261719 4.703125 333.359375 4.703125 C 333.453125 4.703125 333.519531 4.742188 333.5625 4.824219 Z M 333.5625 4.824219 " fill-opacity="1" fill-rule="nonzero"/></g><g clip-path="url(#49a3ef407f)"><path fill="#f7f7e6" d="M 333.5625 19.546875 L 334.742188 21.839844 C 334.777344 21.90625 334.835938 21.949219 334.914062 21.957031 L 337.558594 22.328125 C 337.652344 22.339844 337.710938 22.390625 337.742188 22.476562 C 337.769531 22.5625 337.75 22.636719 337.683594 22.699219 L 335.769531 24.480469 C 335.714844 24.535156 335.691406 24.597656 335.707031 24.675781 L 336.15625 27.191406 C 336.171875 27.28125 336.144531 27.351562 336.066406 27.40625 C 335.992188 27.460938 335.910156 27.464844 335.828125 27.421875 L 333.464844 26.234375 C 333.394531 26.199219 333.324219 26.199219 333.253906 26.234375 L 330.890625 27.421875 C 330.804688 27.464844 330.726562 27.460938 330.648438 27.40625 C 330.574219 27.351562 330.542969 27.28125 330.558594 27.191406 L 331.011719 24.675781 C 331.023438 24.597656 331.003906 24.535156 330.945312 24.480469 L 329.03125 22.695312 C 328.96875 22.632812 328.949219 22.558594 328.976562 22.472656 C 329.007812 22.390625 329.066406 22.339844 329.160156 22.328125 L 331.800781 21.960938 C 331.878906 21.949219 331.9375 21.910156 331.972656 21.839844 L 333.152344 19.546875 C 333.195312 19.46875 333.265625 19.425781 333.359375 19.425781 C 333.453125 19.425781 333.519531 19.464844 333.5625 19.546875 Z M 333.5625 19.546875 " fill-opacity="1" fill-rule="nonzero"/></g><g clip-path="url(#e97ee1c070)"><path fill="#f7f7e6" d="M 333.5625 34.269531 L 334.742188 36.5625 C 334.777344 36.628906 334.835938 36.671875 334.914062 36.679688 L 337.558594 37.050781 C 337.652344 37.0625 337.710938 37.113281 337.742188 37.195312 C 337.769531 37.28125 337.75 37.355469 337.683594 37.417969 L 335.769531 39.203125 C 335.714844 39.257812 335.691406 39.324219 335.707031 39.398438 L 336.15625 41.917969 C 336.171875 42.007812 336.144531 42.078125 336.066406 42.128906 C 335.992188 42.183594 335.910156 42.1875 335.828125 42.148438 L 333.464844 40.957031 C 333.394531 40.921875 333.324219 40.921875 333.253906 40.957031 L 330.890625 42.148438 C 330.804688 42.1875 330.726562 42.183594 330.648438 42.128906 C 330.574219 42.078125 330.542969 42.007812 330.558594 41.917969 L 331.011719 39.40625 C 331.023438 39.328125 331.003906 39.265625 330.945312 39.210938 L 329.03125 37.417969 C 328.964844 37.355469 328.945312 37.28125 328.976562 37.195312 C 329.003906 37.109375 329.066406 37.0625 329.160156 37.050781 L 331.800781 36.679688 C 331.878906 36.671875 331.9375 36.628906 331.972656 36.5625 L 333.152344 34.269531 C 333.195312 34.1875 333.261719 34.148438 333.359375 34.148438 C 333.453125 34.148438 333.519531 34.1875 333.5625 34.269531 Z M 333.5625 34.269531 " fill-opacity="1" fill-rule="nonzero"/></g><g clip-path="url(#02775bbc54)"><path fill="#f7f7e6" d="M 185.160156 32.058594 L 185.160156 36.78125 C 185.160156 37.445312 184.589844 37.964844 183.925781 37.90625 C 183.34375 37.851562 182.898438 37.363281 182.898438 36.78125 L 182.898438 19.9375 L 146.738281 19.9375 L 146.738281 42.332031 L 154.339844 42.332031 L 154.339844 32.882812 L 165.570312 32.882812 L 165.570312 42.332031 L 173.164062 42.332031 L 173.164062 27.128906 C 174.488281 27.128906 175.597656 28.136719 175.722656 29.457031 L 176.429688 36.902344 C 176.71875 39.980469 179.304688 42.332031 182.394531 42.332031 L 182.660156 42.332031 C 185.96875 42.332031 188.652344 39.648438 188.652344 36.339844 L 188.652344 32.058594 Z M 185.160156 32.058594 " fill-opacity="1" fill-rule="nonzero"/></g><g clip-path="url(#78ede39886)"><path fill="#f7f7e6" d="M 169.785156 4.730469 L 159.851562 4.730469 C 152.609375 4.730469 146.738281 10.605469 146.738281 17.847656 L 146.738281 18.429688 L 182.898438 18.429688 L 182.898438 17.847656 C 182.898438 10.605469 177.027344 4.730469 169.785156 4.730469 Z M 157.015625 16.238281 L 154.613281 14.976562 L 152.210938 16.238281 L 152.667969 13.5625 L 150.726562 11.667969 L 153.414062 11.277344 L 154.613281 8.839844 L 155.816406 11.277344 L 158.503906 11.667969 L 156.558594 13.5625 Z M 167.464844 16.238281 L 165.0625 14.976562 L 162.660156 16.238281 L 163.117188 13.5625 L 161.171875 11.667969 L 163.859375 11.277344 L 165.0625 8.839844 L 166.261719 11.277344 L 168.949219 11.667969 L 167.007812 13.5625 Z M 177.914062 16.238281 L 175.507812 14.976562 L 173.105469 16.238281 L 173.566406 13.5625 L 171.621094 11.667969 L 174.308594 11.277344 L 175.507812 8.839844 L 176.710938 11.277344 L 179.398438 11.667969 L 177.453125 13.5625 Z M 177.914062 16.238281 " fill-opacity="1" fill-rule="nonzero"/></g><g clip-path="url(#9269dee45c)"><path fill="#f7f7e6" d="M 605.296875 4.90625 C 605.136719 4.917969 604.984375 5 604.890625 5.144531 C 604.042969 6.433594 603.886719 8.964844 605.367188 10.339844 C 605.605469 10.558594 605.878906 10.699219 606.148438 10.851562 C 605.996094 10.96875 605.824219 11.070312 605.703125 11.226562 L 600.558594 18.085938 C 600.050781 18.75 599.984375 19.648438 600.355469 20.394531 L 601.34375 22.367188 C 601.714844 23.113281 602.480469 23.589844 603.3125 23.589844 L 605.453125 23.589844 C 606.046875 23.589844 606.589844 23.351562 607.015625 22.945312 L 609.648438 20.550781 L 613.707031 28.6875 L 637.488281 28.6875 L 637.488281 22.722656 C 638.609375 23.558594 638.917969 24.238281 640.429688 26.496094 C 640.769531 27.007812 641.449219 27.140625 641.957031 26.800781 L 643.792969 25.578125 C 644.304688 25.238281 644.4375 24.558594 644.097656 24.03125 L 642.738281 22.011719 C 640.800781 19.089844 637.558594 16.796875 634.042969 16.796875 L 617.785156 16.796875 L 611.90625 11.003906 C 613.605469 9.371094 613.84375 6.773438 612.808594 5.210938 C 612.570312 4.851562 612.058594 4.800781 611.753906 5.105469 L 608.765625 9.046875 L 605.742188 5.074219 C 605.621094 4.945312 605.457031 4.890625 605.296875 4.90625 Z M 618.070312 20.191406 C 618.1875 20.191406 618.304688 20.25 618.367188 20.367188 L 619.007812 21.6875 L 620.46875 21.910156 C 620.71875 21.941406 620.8125 22.269531 620.625 22.4375 L 619.574219 23.476562 L 619.824219 24.921875 C 619.875 25.1875 619.589844 25.375 619.371094 25.25 L 618.066406 24.574219 L 616.765625 25.25 C 616.53125 25.375 616.261719 25.1875 616.308594 24.921875 L 616.5625 23.476562 L 615.507812 22.4375 C 615.304688 22.265625 615.414062 21.9375 615.679688 21.910156 L 617.140625 21.6875 L 617.785156 20.367188 C 617.839844 20.25 617.953125 20.191406 618.070312 20.191406 Z M 625.515625 20.191406 C 625.632812 20.191406 625.75 20.25 625.8125 20.367188 L 626.457031 21.6875 L 627.914062 21.910156 C 628.164062 21.941406 628.273438 22.269531 628.070312 22.4375 L 627.023438 23.476562 L 627.269531 24.921875 C 627.316406 25.1875 627.050781 25.375 626.816406 25.25 L 625.511719 24.574219 L 624.210938 25.25 C 623.992188 25.375 623.707031 25.1875 623.753906 24.921875 L 624.007812 23.476562 L 622.953125 22.4375 C 622.765625 22.265625 622.863281 21.9375 623.128906 21.910156 L 624.585938 21.6875 L 625.230469 20.367188 C 625.285156 20.25 625.398438 20.191406 625.515625 20.191406 Z M 633.128906 20.191406 C 633.246094 20.191406 633.363281 20.25 633.425781 20.367188 L 634.070312 21.6875 L 635.527344 21.910156 C 635.78125 21.941406 635.886719 22.269531 635.683594 22.4375 L 634.632812 23.476562 L 634.886719 24.921875 C 634.933594 25.1875 634.664062 25.375 634.425781 25.25 L 633.125 24.574219 L 631.824219 25.25 C 631.605469 25.375 631.320312 25.1875 631.367188 24.921875 L 631.621094 23.476562 L 630.570312 22.4375 C 630.378906 22.265625 630.472656 21.9375 630.742188 21.910156 L 632.199219 21.6875 L 632.84375 20.367188 C 632.898438 20.25 633.015625 20.191406 633.128906 20.191406 Z M 613.707031 32.085938 L 613.707031 41.171875 C 613.707031 41.78125 614.199219 42.277344 614.8125 42.277344 L 619.398438 42.277344 C 620.007812 42.277344 620.503906 41.78125 620.503906 41.171875 L 620.503906 35.480469 L 630.695312 35.480469 L 630.695312 41.171875 C 630.695312 41.78125 631.1875 42.277344 631.800781 42.277344 L 636.382812 42.277344 C 636.996094 42.277344 637.488281 41.78125 637.488281 41.171875 L 637.488281 32.085938 Z M 613.707031 32.085938 " fill-opacity="1" fill-rule="nonzero"/></g><g clip-path="url(#e10f55c91e)"><path fill="#f7f7e6" d="M 435.179688 4.824219 L 436.363281 7.117188 C 436.398438 7.183594 436.457031 7.222656 436.535156 7.234375 L 439.175781 7.601562 C 439.269531 7.613281 439.332031 7.664062 439.359375 7.75 C 439.394531 7.839844 439.375 7.917969 439.300781 7.980469 L 437.390625 9.757812 C 437.335938 9.8125 437.3125 9.875 437.324219 9.949219 L 437.777344 12.46875 C 437.792969 12.558594 437.761719 12.628906 437.6875 12.683594 C 437.609375 12.734375 437.53125 12.742188 437.445312 12.699219 L 435.082031 11.511719 C 435.011719 11.476562 434.941406 11.476562 434.871094 11.511719 L 432.507812 12.699219 C 432.425781 12.742188 432.34375 12.738281 432.269531 12.683594 C 432.191406 12.628906 432.164062 12.558594 432.179688 12.46875 L 432.628906 9.949219 C 432.644531 9.875 432.621094 9.808594 432.5625 9.757812 L 430.652344 7.980469 C 430.585938 7.917969 430.566406 7.84375 430.59375 7.757812 C 430.625 7.671875 430.6875 7.621094 430.777344 7.609375 L 433.421875 7.242188 C 433.5 7.230469 433.554688 7.191406 433.589844 7.121094 L 434.773438 4.824219 C 434.816406 4.742188 434.882812 4.703125 434.976562 4.703125 C 435.070312 4.703125 435.140625 4.742188 435.179688 4.824219 Z M 435.179688 4.824219 " fill-opacity="1" fill-rule="nonzero"/></g><g clip-path="url(#7b349b0917)"><path fill="#f7f7e6" d="M 435.179688 19.546875 L 436.363281 21.839844 C 436.398438 21.90625 436.453125 21.949219 436.535156 21.957031 L 439.175781 22.328125 C 439.269531 22.339844 439.332031 22.390625 439.359375 22.476562 C 439.386719 22.5625 439.371094 22.636719 439.300781 22.699219 L 437.390625 24.480469 C 437.335938 24.535156 437.3125 24.597656 437.324219 24.675781 L 437.777344 27.191406 C 437.792969 27.28125 437.761719 27.351562 437.6875 27.40625 C 437.609375 27.460938 437.53125 27.464844 437.445312 27.421875 L 435.082031 26.234375 C 435.011719 26.199219 434.941406 26.199219 434.871094 26.234375 L 432.507812 27.421875 C 432.425781 27.464844 432.34375 27.460938 432.269531 27.40625 C 432.191406 27.351562 432.164062 27.28125 432.179688 27.191406 L 432.628906 24.675781 C 432.644531 24.597656 432.621094 24.535156 432.5625 24.480469 L 430.652344 22.695312 C 430.585938 22.632812 430.566406 22.558594 430.597656 22.472656 C 430.625 22.390625 430.6875 22.339844 430.777344 22.328125 L 433.421875 21.960938 C 433.5 21.949219 433.558594 21.910156 433.589844 21.839844 L 434.773438 19.546875 C 434.816406 19.46875 434.882812 19.425781 434.976562 19.425781 C 435.070312 19.425781 435.140625 19.464844 435.179688 19.546875 Z M 435.179688 19.546875 " fill-opacity="1" fill-rule="nonzero"/></g><g clip-path="url(#6d86ddddaf)"><path fill="#f7f7e6" d="M 435.179688 34.269531 L 436.363281 36.5625 C 436.398438 36.628906 436.453125 36.671875 436.535156 36.679688 L 439.175781 37.050781 C 439.269531 37.0625 439.332031 37.113281 439.359375 37.195312 C 439.390625 37.28125 439.371094 37.355469 439.300781 37.417969 L 437.390625 39.203125 C 437.335938 39.257812 437.3125 39.324219 437.324219 39.398438 L 437.777344 41.917969 C 437.792969 42.007812 437.761719 42.078125 437.6875 42.128906 C 437.609375 42.183594 437.53125 42.1875 437.445312 42.148438 L 435.082031 40.957031 C 435.011719 40.921875 434.941406 40.921875 434.871094 40.957031 L 432.507812 42.148438 C 432.425781 42.1875 432.34375 42.183594 432.269531 42.128906 C 432.191406 42.078125 432.164062 42.007812 432.179688 41.917969 L 432.628906 39.40625 C 432.644531 39.328125 432.621094 39.265625 432.5625 39.210938 L 430.652344 37.417969 C 430.585938 37.355469 430.566406 37.28125 430.59375 37.195312 C 430.625 37.109375 430.6875 37.0625 430.777344 37.050781 L 433.421875 36.679688 C 433.5 36.671875 433.558594 36.628906 433.589844 36.5625 L 434.773438 34.269531 C 434.816406 34.1875 434.882812 34.148438 434.976562 34.148438 C 435.070312 34.148438 435.140625 34.1875 435.179688 34.269531 Z M 435.179688 34.269531 " fill-opacity="1" fill-rule="nonzero"/></g></svg>